<svg id="svg" version="1.1" xmlns="http://www.w3.org/2000/svg" xmlns:xlink="http://www.w3.org/1999/xlink" width="400" height="400" viewBox="0, 0, 400,400"><g id="svgg"><path id="path0" d="M180.729 72.808 C 175.969 73.690,172.614 76.669,170.774 81.648 C 170.393 82.679,170.334 83.405,170.257 87.969 L 170.171 93.125 200.000 93.125 L 229.829 93.125 229.748 87.969 C 229.601 78.669,226.422 74.112,219.167 72.798 C 216.949 72.396,182.902 72.405,180.729 72.808 M147.915 98.527 C 144.472 99.580,142.697 103.638,144.285 106.825 C 145.020 108.301,145.465 108.647,151.316 112.293 C 161.733 118.785,163.260 121.053,163.524 130.417 C 163.661 135.288,163.742 135.721,164.631 136.343 C 165.462 136.926,234.743 136.825,235.486 136.241 C 236.289 135.608,236.456 134.651,236.461 130.625 C 236.469 124.272,237.569 121.221,241.149 117.618 C 242.821 115.936,242.937 115.857,251.344 110.638 C 254.325 108.788,255.052 108.155,255.707 106.841 C 257.114 104.017,255.914 100.431,253.049 98.898 L 252.188 98.438 200.313 98.402 C 171.781 98.383,148.203 98.439,147.915 98.527 M191.735 111.742 C 193.586 112.516,193.698 115.038,191.934 116.195 C 191.030 116.787,177.910 116.867,176.601 116.289 C 174.580 115.394,174.527 112.631,176.515 111.767 C 177.483 111.346,190.735 111.325,191.735 111.742 M223.440 111.758 C 225.470 112.607,225.445 115.384,223.399 116.289 C 222.090 116.867,208.970 116.787,208.066 116.195 C 206.324 115.053,206.411 112.539,208.219 111.751 C 209.181 111.332,222.435 111.338,223.440 111.758 M115.345 142.256 C 114.833 142.821,114.817 161.037,115.327 161.548 C 115.893 162.113,153.231 162.039,153.534 161.472 C 153.971 160.656,153.816 142.624,153.369 142.220 C 152.749 141.659,115.854 141.694,115.345 142.256 M159.095 142.256 C 158.680 142.714,158.559 160.713,158.966 161.472 C 159.269 162.039,196.607 162.113,197.173 161.548 C 197.665 161.055,197.668 143.041,197.176 142.338 L 196.851 141.875 178.145 141.875 C 160.288 141.875,159.424 141.892,159.095 142.256 M202.824 142.338 C 202.332 143.041,202.335 161.055,202.827 161.548 C 203.393 162.113,240.731 162.039,241.034 161.472 C 241.471 160.656,241.316 142.624,240.869 142.220 C 240.520 141.904,238.898 141.875,221.818 141.875 L 203.149 141.875 202.824 142.338 M246.595 142.256 C 246.180 142.714,246.059 160.713,246.466 161.472 C 246.769 162.039,284.107 162.113,284.673 161.548 C 285.214 161.006,285.163 142.712,284.619 142.220 C 283.999 141.659,247.104 141.694,246.595 142.256 M115.327 167.411 C 114.831 167.907,114.831 186.260,115.327 186.756 C 115.827 187.255,152.923 187.255,153.423 186.756 C 153.919 186.260,153.919 167.907,153.423 167.411 C 152.923 166.911,115.827 166.911,115.327 167.411 M159.077 167.411 C 158.536 167.952,158.587 186.246,159.131 186.739 C 159.479 187.053,160.901 187.083,175.329 187.081 L 191.146 187.078 194.055 186.470 C 196.077 186.047,197.046 185.750,197.232 185.495 C 197.718 184.831,197.612 167.874,197.119 167.428 C 196.550 166.913,159.592 166.896,159.077 167.411 M202.845 167.464 C 202.385 167.973,202.313 184.873,202.768 185.495 C 202.954 185.750,203.923 186.047,205.945 186.470 L 208.854 187.078 224.707 187.081 C 239.803 187.083,240.577 187.065,240.905 186.702 C 241.417 186.137,241.433 167.921,240.923 167.411 C 240.377 166.865,203.340 166.917,202.845 167.464 M246.577 167.411 C 246.081 167.907,246.081 186.260,246.577 186.756 C 247.077 187.255,284.173 187.255,284.673 186.756 C 284.961 186.468,285.000 185.301,285.000 177.083 C 285.000 168.865,284.961 167.699,284.673 167.411 C 284.173 166.911,247.077 166.911,246.577 167.411 M191.875 192.083 C 189.411 192.630,184.724 193.647,181.458 194.344 C 171.907 196.382,162.511 198.402,151.146 200.859 C 145.302 202.122,139.208 203.425,137.604 203.755 C 131.110 205.089,116.287 208.358,115.313 208.670 C 106.620 211.457,102.546 220.360,106.890 227.081 C 108.049 228.874,109.260 230.028,115.197 234.994 C 133.273 250.114,142.810 265.446,145.106 283.077 L 145.249 284.175 146.843 282.751 C 149.236 280.614,150.910 279.268,152.569 278.149 C 160.983 272.471,172.525 271.783,181.768 276.408 C 185.010 278.031,186.411 279.087,192.604 284.578 C 197.619 289.025,202.648 288.840,208.034 284.011 C 214.470 278.242,217.230 276.428,222.003 274.829 C 232.771 271.223,242.594 273.623,252.638 282.315 L 254.755 284.148 254.896 283.063 C 257.187 265.451,266.733 250.109,284.803 234.994 C 290.740 230.028,291.951 228.874,293.110 227.081 C 297.646 220.063,293.155 211.030,283.854 208.463 C 282.078 207.973,269.765 205.281,260.000 203.247 C 257.536 202.734,252.099 201.568,247.917 200.657 C 243.734 199.745,239.750 198.888,239.063 198.752 C 238.375 198.615,233.547 197.580,228.333 196.452 C 210.613 192.615,202.915 191.018,202.719 191.139 C 202.455 191.302,202.330 192.460,202.190 196.042 C 202.125 197.703,201.794 204.453,201.456 211.042 C 200.894 221.968,200.723 225.391,200.290 234.323 C 200.105 238.139,199.889 238.100,199.712 234.219 C 199.635 232.529,199.525 230.396,199.468 229.479 C 199.412 228.563,198.995 220.594,198.542 211.771 C 197.596 193.343,197.513 191.902,197.369 191.406 C 197.227 190.914,197.042 190.937,191.875 192.083 M115.327 192.619 C 115.047 192.899,115.000 193.703,115.000 198.213 L 115.000 203.479 117.135 202.992 C 118.310 202.725,123.677 201.564,129.063 200.413 C 134.448 199.262,142.206 197.603,146.302 196.727 L 153.750 195.135 153.750 194.040 C 153.750 192.128,155.564 192.292,134.375 192.292 C 117.634 192.292,115.620 192.326,115.327 192.619 M246.577 192.619 C 246.363 192.834,246.250 193.324,246.250 194.040 L 246.250 195.134 248.906 195.700 C 250.367 196.012,254.609 196.924,258.333 197.727 C 262.057 198.529,269.276 200.075,274.375 201.161 C 279.474 202.247,283.951 203.219,284.323 203.322 L 285.000 203.508 285.000 198.227 C 285.000 193.704,284.953 192.899,284.673 192.619 C 284.173 192.120,247.077 192.120,246.577 192.619 M182.699 210.853 C 185.513 212.435,184.077 216.924,180.862 216.597 C 179.216 216.429,178.060 215.188,178.036 213.563 C 178.001 211.176,180.593 209.670,182.699 210.853 M220.419 210.885 C 223.022 212.657,222.209 216.284,219.138 216.597 C 215.942 216.922,214.493 212.472,217.271 210.861 C 218.276 210.278,219.541 210.288,220.419 210.885 M103.229 278.540 C 97.521 279.142,93.214 281.315,87.708 286.374 C 82.496 291.163,79.573 292.692,75.611 292.705 C 71.920 292.716,69.482 295.274,70.182 298.401 C 70.904 301.626,73.817 302.716,79.201 301.777 C 84.423 300.867,87.771 299.028,93.267 294.052 C 98.913 288.939,102.190 287.475,107.150 287.848 C 111.421 288.169,113.606 289.329,118.854 294.057 C 125.909 300.414,129.528 301.955,137.396 301.957 C 145.226 301.958,148.973 300.329,156.250 293.757 C 161.569 288.955,163.882 287.856,168.646 287.866 C 173.548 287.876,175.768 288.933,181.255 293.868 C 188.275 300.181,192.614 302.083,200.000 302.083 C 207.454 302.083,211.639 300.230,218.927 293.698 C 224.239 288.938,226.502 287.876,231.354 287.866 C 236.119 287.856,238.412 288.954,243.854 293.857 C 251.061 300.350,254.781 301.956,262.604 301.956 C 270.502 301.956,274.179 300.377,281.250 293.950 C 286.604 289.084,289.160 287.861,293.958 287.869 C 298.730 287.877,301.151 289.027,306.382 293.769 C 312.960 299.734,317.090 301.727,323.485 302.025 C 326.594 302.170,327.485 301.909,328.735 300.488 C 331.645 297.182,329.154 292.720,324.389 292.705 C 320.382 292.692,317.358 291.079,311.961 286.076 C 304.890 279.521,297.807 277.291,289.048 278.864 C 284.329 279.712,280.809 281.677,275.565 286.393 C 269.758 291.616,267.528 292.701,262.604 292.701 C 257.823 292.701,255.276 291.507,250.208 286.890 C 244.474 281.666,241.124 279.752,236.161 278.866 C 227.037 277.236,220.465 279.450,212.396 286.870 C 207.226 291.625,205.108 292.604,200.000 292.604 C 194.892 292.604,192.774 291.625,187.604 286.870 C 175.427 275.673,162.785 275.305,151.001 285.806 C 144.354 291.730,142.438 292.701,137.396 292.701 C 132.455 292.701,130.263 291.635,124.435 286.393 C 117.196 279.883,111.277 277.691,103.229 278.540 M101.231 304.062 C 96.690 304.919,92.591 307.191,87.917 311.442 C 82.197 316.644,80.694 317.457,75.813 317.987 C 71.204 318.487,69.291 320.581,70.294 324.030 C 71.088 326.760,73.021 327.692,77.082 327.300 C 83.382 326.693,87.181 324.816,93.340 319.271 C 98.916 314.250,101.229 313.132,106.042 313.132 C 111.019 313.132,113.308 314.293,119.685 320.050 C 125.578 325.371,130.398 327.360,137.396 327.360 C 144.777 327.360,149.511 325.233,156.563 318.748 C 161.438 314.264,163.727 313.228,168.750 313.235 C 173.525 313.242,175.351 313.990,179.557 317.661 C 186.977 324.138,188.902 325.377,193.378 326.558 C 202.809 329.048,210.211 326.826,219.055 318.849 C 224.189 314.219,226.519 313.137,231.373 313.129 C 235.949 313.121,238.772 314.446,243.542 318.839 C 251.037 325.742,257.054 328.116,265.000 327.304 C 271.594 326.631,275.360 324.674,282.188 318.377 C 286.434 314.460,289.414 313.132,293.958 313.132 C 298.761 313.132,301.132 314.275,306.594 319.221 C 312.711 324.759,316.617 326.693,322.918 327.300 C 326.979 327.692,328.912 326.760,329.706 324.030 C 330.709 320.581,328.796 318.487,324.187 317.987 C 319.288 317.455,317.902 316.695,311.750 311.167 C 305.838 305.855,301.713 304.036,295.070 303.811 C 287.012 303.538,282.481 305.387,275.273 311.889 C 269.686 316.928,267.524 317.966,262.604 317.966 C 257.691 317.966,255.300 316.801,249.688 311.671 C 243.372 305.899,239.206 304.020,232.250 303.805 C 224.541 303.566,219.783 305.453,213.332 311.305 C 207.179 316.887,205.021 317.966,200.000 317.973 C 194.984 317.980,192.834 316.903,186.645 311.281 C 180.424 305.630,176.202 303.880,168.750 303.864 C 160.720 303.846,157.254 305.388,149.370 312.488 C 144.476 316.894,142.064 317.990,137.292 317.971 C 132.208 317.952,129.538 316.534,123.125 310.449 C 117.531 305.141,108.882 302.618,101.231 304.062 " stroke="none" fill="#1034ad" fill-rule="evenodd"></path><path id="path1" d="M0.000 200.000 L 0.000 400.000 200.000 400.000 L 400.000 400.000 400.000 200.000 L 400.000 0.000 200.000 0.000 L 0.000 0.000 0.000 200.000 M220.313 72.788 C 224.754 74.115,228.239 77.613,229.485 81.993 C 229.754 82.938,229.862 84.419,229.942 88.281 L 230.047 93.333 200.000 93.333 L 169.953 93.333 170.058 88.281 C 170.138 84.419,170.246 82.938,170.515 81.993 C 171.959 76.916,176.252 73.203,181.563 72.437 C 183.812 72.112,219.123 72.432,220.313 72.788 M252.411 98.474 C 255.413 99.495,257.184 103.213,256.135 106.293 C 255.479 108.217,255.051 108.553,246.563 113.815 C 238.650 118.719,236.747 122.001,236.513 131.144 L 236.400 135.516 235.721 136.196 L 235.042 136.875 200.000 136.875 L 164.958 136.875 164.279 136.196 L 163.600 135.516 163.487 131.144 C 163.253 122.001,161.350 118.719,153.438 113.815 C 144.949 108.553,144.521 108.217,143.865 106.293 C 142.834 103.265,144.579 99.519,147.501 98.488 C 148.981 97.966,250.876 97.952,252.411 98.474 M176.315 112.073 C 174.584 113.129,174.927 115.725,176.866 116.247 C 178.578 116.709,191.323 116.432,192.016 115.919 C 193.442 114.862,193.310 112.724,191.775 111.995 C 190.613 111.444,177.237 111.511,176.315 112.073 M208.192 112.003 C 206.689 112.744,206.576 114.876,207.984 115.919 C 208.756 116.490,222.592 116.606,223.632 116.049 C 225.224 115.197,225.170 112.821,223.539 111.978 C 222.625 111.505,209.157 111.527,208.192 112.003 M153.450 141.962 C 154.015 142.375,154.200 160.746,153.647 161.590 L 153.324 162.083 134.376 162.083 L 115.427 162.083 115.103 161.457 C 114.560 160.407,114.734 142.723,115.293 142.105 L 115.690 141.667 134.367 141.667 C 150.166 141.667,153.108 141.712,153.450 141.962 M197.284 142.123 C 197.942 142.829,197.949 161.009,197.292 161.667 C 196.698 162.260,159.423 162.331,158.932 161.739 C 158.378 161.072,158.411 142.930,158.967 142.223 L 159.405 141.667 178.132 141.667 L 196.859 141.667 197.284 142.123 M241.033 142.223 C 241.589 142.930,241.622 161.072,241.068 161.739 C 240.577 162.331,203.302 162.260,202.708 161.667 C 202.051 161.009,202.058 142.829,202.716 142.123 L 203.141 141.667 221.868 141.667 L 240.595 141.667 241.033 142.223 M284.707 142.105 C 285.266 142.723,285.440 160.407,284.897 161.457 L 284.573 162.083 265.631 162.083 L 246.690 162.083 246.366 161.620 C 246.084 161.218,246.042 159.953,246.042 152.023 C 246.042 142.934,246.088 142.268,246.750 141.826 C 246.876 141.742,255.379 141.672,265.645 141.670 L 284.310 141.667 284.707 142.105 M153.450 167.171 C 154.081 167.633,154.081 186.534,153.450 186.996 C 153.008 187.319,115.979 187.452,115.500 187.132 C 114.839 186.691,114.792 186.022,114.792 177.083 C 114.792 168.145,114.839 167.476,115.500 167.034 C 115.979 166.715,153.008 166.848,153.450 167.171 M197.292 167.292 C 197.899 167.899,197.947 184.885,197.344 185.585 C 197.079 185.892,196.188 186.184,194.088 186.650 L 191.196 187.292 175.325 187.292 C 161.951 187.292,159.391 187.245,159.050 186.996 C 158.662 186.712,158.643 186.331,158.586 177.569 C 158.523 168.079,158.539 167.740,159.078 167.202 C 159.653 166.626,196.713 166.713,197.292 167.292 M240.922 167.202 C 241.461 167.740,241.477 168.079,241.414 177.569 C 241.357 186.331,241.338 186.712,240.950 186.996 C 240.609 187.245,238.049 187.292,224.675 187.292 L 208.804 187.292 205.912 186.650 C 203.812 186.184,202.921 185.892,202.656 185.585 C 202.053 184.885,202.101 167.899,202.708 167.292 C 203.287 166.713,240.347 166.626,240.922 167.202 M284.500 167.034 C 285.161 167.476,285.208 168.145,285.208 177.083 C 285.208 186.022,285.161 186.691,284.500 187.132 C 283.858 187.561,246.888 187.305,246.452 186.869 C 245.808 186.225,245.901 167.645,246.550 167.171 C 246.992 166.848,284.021 166.715,284.500 167.034 M197.285 191.038 C 197.718 191.270,197.707 191.143,198.231 201.875 C 198.402 205.370,198.585 208.979,198.639 209.896 C 198.692 210.813,198.788 212.969,198.854 214.688 C 198.919 216.406,199.011 218.281,199.058 218.854 C 199.105 219.427,199.308 223.294,199.509 227.448 C 199.710 231.602,199.930 235.000,199.999 235.000 C 200.067 235.000,200.289 231.508,200.491 227.240 C 200.693 222.971,200.894 219.010,200.939 218.438 C 200.983 217.865,201.076 215.943,201.145 214.167 C 201.214 212.391,201.403 208.313,201.566 205.104 C 201.729 201.896,201.915 197.865,201.980 196.146 C 202.136 192.036,202.238 191.293,202.675 191.059 C 203.065 190.851,205.562 191.339,217.917 194.041 C 221.870 194.905,227.167 196.043,229.688 196.570 C 232.208 197.096,236.615 198.042,239.479 198.672 C 242.344 199.301,247.734 200.460,251.458 201.247 C 255.182 202.034,261.717 203.435,265.979 204.360 C 270.242 205.286,275.351 206.376,277.334 206.783 C 284.609 208.277,286.468 208.909,289.263 210.841 C 294.601 214.531,296.499 220.807,293.865 226.061 C 292.624 228.537,291.842 229.298,282.281 237.322 C 267.248 249.941,257.143 266.722,255.172 282.344 C 255.031 283.461,254.864 284.372,254.802 284.369 C 254.739 284.365,253.844 283.608,252.813 282.686 C 245.197 275.881,239.901 273.653,231.354 273.661 C 222.868 273.668,217.362 275.904,210.313 282.207 C 205.184 286.792,204.248 287.388,201.562 287.775 C 197.333 288.384,195.598 287.537,189.063 281.668 C 182.741 275.992,176.862 273.673,168.750 273.658 C 159.975 273.642,154.786 275.850,146.820 282.990 C 145.931 283.787,145.173 284.401,145.137 284.355 C 145.100 284.309,144.957 283.380,144.819 282.292 C 142.831 266.673,132.744 249.934,117.719 237.322 C 108.158 229.298,107.376 228.537,106.135 226.061 C 103.501 220.807,105.399 214.531,110.737 210.841 C 113.581 208.875,115.275 208.309,123.229 206.664 C 125.521 206.190,131.052 205.007,135.521 204.036 C 139.990 203.064,146.036 201.765,148.958 201.148 C 151.880 200.530,157.271 199.370,160.938 198.570 C 164.604 197.769,169.245 196.773,171.250 196.355 C 173.255 195.938,179.161 194.672,184.375 193.542 C 189.589 192.413,194.510 191.351,195.313 191.183 C 196.115 191.014,196.800 190.867,196.837 190.855 C 196.873 190.843,197.075 190.925,197.285 191.038 M153.556 192.413 C 154.035 192.990,154.081 195.143,153.617 195.283 C 153.129 195.430,143.845 197.459,139.688 198.327 C 137.969 198.685,131.825 200.005,126.035 201.260 C 120.245 202.515,115.346 203.542,115.150 203.542 C 114.821 203.542,114.792 203.123,114.792 198.424 C 114.792 193.400,114.877 192.659,115.500 192.243 C 116.024 191.893,153.263 192.060,153.556 192.413 M284.500 192.243 C 285.123 192.659,285.208 193.400,285.208 198.424 C 285.208 203.214,285.184 203.542,284.833 203.542 C 284.627 203.542,280.572 202.692,275.823 201.653 C 271.073 200.615,265.185 199.349,262.737 198.839 C 257.662 197.784,246.965 195.457,246.383 195.282 C 245.919 195.143,245.965 192.990,246.444 192.413 C 246.737 192.060,283.976 191.893,284.500 192.243 M179.291 211.260 C 177.163 213.129,178.351 216.458,181.146 216.458 C 183.941 216.458,185.129 213.129,183.001 211.260 C 182.384 210.719,182.110 210.625,181.146 210.625 C 180.182 210.625,179.908 210.719,179.291 211.260 M216.999 211.260 C 214.871 213.129,216.059 216.458,218.854 216.458 C 221.649 216.458,222.837 213.129,220.709 211.260 C 220.092 210.719,219.818 210.625,218.854 210.625 C 217.890 210.625,217.616 210.719,216.999 211.260 M110.760 278.645 C 115.912 279.631,119.426 281.617,125.104 286.755 C 130.281 291.439,132.539 292.493,137.396 292.493 C 142.279 292.493,144.423 291.472,149.918 286.531 C 157.212 279.973,161.523 278.180,169.479 278.396 C 176.328 278.581,180.607 280.396,186.332 285.543 C 193.151 291.673,195.240 292.666,200.833 292.434 C 205.395 292.245,207.248 291.311,212.525 286.539 C 219.615 280.129,223.568 278.431,231.354 278.448 C 239.485 278.466,242.561 279.868,251.210 287.500 C 255.667 291.433,257.516 292.291,261.875 292.447 C 267.186 292.636,269.468 291.647,274.792 286.847 C 282.315 280.062,285.909 278.471,293.750 278.449 C 301.742 278.427,305.287 279.937,312.672 286.506 C 318.023 291.265,320.406 292.484,324.389 292.496 C 327.754 292.507,330.006 294.474,329.995 297.393 C 329.967 305.208,316.921 303.642,307.114 294.647 C 301.160 289.186,299.006 288.105,294.063 288.094 C 288.999 288.083,286.880 289.087,281.250 294.164 C 274.136 300.580,269.374 302.529,261.539 302.233 C 254.613 301.970,250.630 300.130,243.854 294.060 C 238.198 288.994,236.268 288.080,231.250 288.092 C 226.252 288.105,224.140 289.131,218.542 294.267 C 212.374 299.925,207.739 302.023,200.938 302.234 C 192.981 302.481,188.273 300.478,180.729 293.638 C 175.590 288.977,172.780 287.785,167.604 288.070 C 163.261 288.309,161.545 289.253,155.114 294.941 C 148.974 300.372,144.325 302.292,137.316 302.291 C 130.152 302.291,125.458 300.238,118.750 294.172 C 113.133 289.092,111.006 288.083,105.938 288.094 C 101.082 288.104,99.034 289.087,93.598 294.010 C 87.006 299.980,81.941 302.302,75.546 302.287 C 71.967 302.278,70.016 300.555,70.005 297.393 C 69.994 294.474,72.246 292.507,75.611 292.496 C 79.594 292.484,81.977 291.265,87.328 286.506 C 95.396 279.329,102.274 277.022,110.760 278.645 M110.313 303.849 C 115.593 304.710,119.089 306.643,125.194 312.080 C 129.922 316.289,131.719 317.266,135.537 317.698 C 140.956 318.312,144.166 317.028,149.583 312.077 C 156.878 305.412,161.807 303.335,169.688 303.607 C 176.778 303.853,180.935 305.823,188.021 312.297 C 195.704 319.317,203.365 319.828,210.274 313.781 C 211.144 313.019,212.861 311.516,214.089 310.441 C 219.529 305.677,223.916 303.829,230.313 303.607 C 238.069 303.339,242.772 305.258,249.813 311.563 C 255.095 316.293,256.807 317.251,260.780 317.703 C 266.058 318.302,269.349 317.009,274.583 312.280 C 282.260 305.343,287.153 303.268,295.052 303.598 C 301.979 303.887,306.388 305.968,313.021 312.079 C 317.707 316.396,319.784 317.434,324.479 317.806 C 328.360 318.112,330.213 319.936,329.951 323.191 C 329.707 326.237,327.347 327.922,323.757 327.614 C 316.984 327.034,312.926 325.104,306.622 319.464 C 300.485 313.975,298.587 313.132,292.935 313.388 C 289.075 313.563,286.768 314.580,283.302 317.633 C 276.279 323.819,274.299 325.169,270.417 326.419 C 261.132 329.408,252.610 327.245,244.409 319.819 C 238.350 314.332,236.352 313.341,231.354 313.341 C 226.366 313.341,224.350 314.320,218.424 319.621 C 211.231 326.055,205.393 328.279,197.673 327.524 C 191.370 326.908,187.494 324.959,181.042 319.163 C 175.711 314.374,173.511 313.341,168.646 313.341 C 163.648 313.341,161.650 314.332,155.591 319.819 C 149.264 325.548,144.441 327.590,137.292 327.569 C 130.434 327.548,125.524 325.515,119.708 320.290 C 113.212 314.454,111.653 313.603,107.065 313.391 C 101.419 313.129,99.517 313.973,93.378 319.464 C 87.074 325.104,83.016 327.034,76.243 327.614 C 70.529 328.104,67.499 321.761,72.018 318.768 C 73.057 318.079,73.281 318.024,76.272 317.713 C 80.483 317.275,82.618 316.158,86.875 312.165 C 92.194 307.177,96.462 304.742,101.250 303.966 C 102.109 303.826,102.953 303.685,103.125 303.651 C 104.098 303.461,108.708 303.587,110.313 303.849 " stroke="none" fill="#fbfbfb" fill-rule="evenodd"></path><path id="path2" d="M185.052 93.281 C 193.273 93.311,206.727 93.311,214.948 93.281 C 223.169 93.251,216.443 93.226,200.000 93.226 C 183.557 93.226,176.831 93.251,185.052 93.281 M174.531 98.281 C 188.539 98.311,211.461 98.311,225.469 98.281 C 239.477 98.252,228.016 98.227,200.000 98.227 C 171.984 98.227,160.523 98.252,174.531 98.281 M143.594 104.271 C 143.597 104.729,143.639 104.892,143.689 104.633 C 143.739 104.374,143.737 103.999,143.685 103.800 C 143.633 103.600,143.592 103.813,143.594 104.271 M256.303 104.271 C 256.305 104.729,256.348 104.892,256.397 104.633 C 256.447 104.374,256.445 103.999,256.393 103.800 C 256.341 103.600,256.300 103.813,256.303 104.271 M158.646 117.500 C 159.210 118.073,159.719 118.542,159.776 118.542 C 159.833 118.542,159.418 118.073,158.854 117.500 C 158.290 116.927,157.781 116.458,157.724 116.458 C 157.667 116.458,158.082 116.927,158.646 117.500 M180.690 116.614 C 182.617 116.649,185.711 116.649,187.565 116.614 C 189.420 116.580,187.844 116.551,184.063 116.552 C 180.281 116.552,178.764 116.580,180.690 116.614 M212.565 116.614 C 214.492 116.649,217.586 116.649,219.440 116.614 C 221.295 116.580,219.719 116.551,215.938 116.552 C 212.156 116.552,210.639 116.580,212.565 116.614 M241.138 117.552 L 240.104 118.646 241.198 117.612 C 241.799 117.043,242.292 116.551,242.292 116.518 C 242.292 116.363,242.099 116.536,241.138 117.552 M182.656 136.823 C 192.195 136.853,207.805 136.853,217.344 136.823 C 226.883 136.793,219.078 136.768,200.000 136.768 C 180.922 136.768,173.117 136.793,182.656 136.823 M124.964 141.823 C 129.928 141.854,137.990 141.854,142.880 141.823 C 147.770 141.792,143.708 141.766,133.854 141.766 C 124.000 141.766,119.999 141.792,124.964 141.823 M168.698 141.823 C 173.654 141.854,181.763 141.854,186.719 141.823 C 191.674 141.792,187.620 141.766,177.708 141.766 C 167.797 141.766,163.742 141.792,168.698 141.823 M213.281 141.823 C 218.237 141.854,226.346 141.854,231.302 141.823 C 236.258 141.792,232.203 141.766,222.292 141.766 C 212.380 141.766,208.326 141.792,213.281 141.823 M257.255 141.823 C 262.220 141.854,270.282 141.854,275.172 141.823 C 280.062 141.792,276.000 141.766,266.146 141.766 C 256.292 141.766,252.291 141.792,257.255 141.823 M125.052 162.031 C 130.180 162.062,138.570 162.062,143.698 162.031 C 148.826 162.000,144.630 161.975,134.375 161.975 C 124.120 161.975,119.924 162.000,125.052 162.031 M168.802 162.031 C 173.930 162.062,182.320 162.062,187.448 162.031 C 192.576 162.000,188.380 161.975,178.125 161.975 C 167.870 161.975,163.674 162.000,168.802 162.031 M212.552 162.031 C 217.680 162.062,226.070 162.062,231.198 162.031 C 236.326 162.000,232.130 161.975,221.875 161.975 C 211.620 161.975,207.424 162.000,212.552 162.031 M256.302 162.031 C 261.430 162.062,269.820 162.062,274.948 162.031 C 280.076 162.000,275.880 161.975,265.625 161.975 C 255.370 161.975,251.174 162.000,256.302 162.031 M125.156 167.031 C 130.227 167.062,138.523 167.062,143.594 167.031 C 148.664 167.000,144.516 166.975,134.375 166.975 C 124.234 166.975,120.086 167.000,125.156 167.031 M169.026 167.031 C 174.162 167.062,182.506 167.062,187.568 167.031 C 192.629 167.000,188.427 166.975,178.229 166.975 C 168.031 166.975,163.890 167.000,169.026 167.031 M212.568 167.031 C 217.704 167.062,226.048 167.062,231.109 167.031 C 236.171 167.000,231.969 166.975,221.771 166.975 C 211.573 166.975,207.432 167.000,212.568 167.031 M256.406 167.031 C 261.477 167.062,269.773 167.062,274.844 167.031 C 279.914 167.000,275.766 166.975,265.625 166.975 C 255.484 166.975,251.336 167.000,256.406 167.031 M125.052 187.240 C 130.180 187.271,138.570 187.271,143.698 187.240 C 148.826 187.208,144.630 187.183,134.375 187.183 C 124.120 187.183,119.924 187.208,125.052 187.240 M167.328 187.239 C 171.645 187.271,178.770 187.271,183.162 187.240 C 187.553 187.208,184.021 187.182,175.313 187.182 C 166.604 187.182,163.011 187.208,167.328 187.239 M216.703 187.239 C 221.020 187.271,228.145 187.271,232.537 187.240 C 236.928 187.208,233.396 187.182,224.688 187.182 C 215.979 187.182,212.386 187.208,216.703 187.239 M256.302 187.240 C 261.430 187.271,269.820 187.271,274.948 187.240 C 280.076 187.208,275.880 187.183,265.625 187.183 C 255.370 187.183,251.174 187.208,256.302 187.240 M125.052 192.240 C 130.180 192.271,138.570 192.271,143.698 192.240 C 148.826 192.208,144.630 192.183,134.375 192.183 C 124.120 192.183,119.924 192.208,125.052 192.240 M256.302 192.240 C 261.430 192.271,269.820 192.271,274.948 192.240 C 280.076 192.208,275.880 192.183,265.625 192.183 C 255.370 192.183,251.174 192.208,256.302 192.240 M197.548 192.917 C 197.548 193.318,197.591 193.482,197.644 193.281 C 197.696 193.081,197.696 192.753,197.644 192.552 C 197.591 192.352,197.548 192.516,197.548 192.917 M202.132 195.625 C 202.132 196.026,202.175 196.190,202.227 195.990 C 202.279 195.789,202.279 195.461,202.227 195.260 C 202.175 195.060,202.132 195.224,202.132 195.625 M197.765 197.083 C 197.765 197.599,197.806 197.810,197.855 197.552 C 197.905 197.294,197.905 196.872,197.855 196.615 C 197.806 196.357,197.765 196.568,197.765 197.083 M201.935 199.896 C 201.936 200.469,201.977 200.678,202.024 200.362 C 202.072 200.045,202.071 199.576,202.022 199.320 C 201.972 199.064,201.933 199.323,201.935 199.896 M197.973 201.042 C 197.973 201.557,198.014 201.768,198.064 201.510 C 198.113 201.253,198.113 200.831,198.064 200.573 C 198.014 200.315,197.973 200.526,197.973 201.042 M201.715 204.375 C 201.715 204.776,201.758 204.940,201.810 204.740 C 201.863 204.539,201.863 204.211,201.810 204.010 C 201.758 203.810,201.715 203.974,201.715 204.375 M198.173 205.208 C 198.173 205.609,198.216 205.773,198.269 205.573 C 198.321 205.372,198.321 205.044,198.269 204.844 C 198.216 204.643,198.173 204.807,198.173 205.208 M201.507 208.333 C 201.507 208.734,201.550 208.898,201.602 208.698 C 201.654 208.497,201.654 208.169,201.602 207.969 C 201.550 207.768,201.507 207.932,201.507 208.333 M198.382 209.167 C 198.382 209.568,198.425 209.732,198.477 209.531 C 198.529 209.331,198.529 209.003,198.477 208.802 C 198.425 208.602,198.382 208.766,198.382 209.167 M201.298 212.500 C 201.298 212.901,201.341 213.065,201.394 212.865 C 201.446 212.664,201.446 212.336,201.394 212.135 C 201.341 211.935,201.298 212.099,201.298 212.500 M198.590 213.125 C 198.590 213.526,198.633 213.690,198.685 213.490 C 198.738 213.289,198.738 212.961,198.685 212.760 C 198.633 212.560,198.590 212.724,198.590 213.125 M201.090 216.458 C 201.090 216.859,201.133 217.023,201.185 216.823 C 201.238 216.622,201.238 216.294,201.185 216.094 C 201.133 215.893,201.090 216.057,201.090 216.458 M200.882 220.625 C 200.882 221.026,200.925 221.190,200.977 220.990 C 201.029 220.789,201.029 220.461,200.977 220.260 C 200.925 220.060,200.882 220.224,200.882 220.625 M199.215 225.000 C 199.215 225.401,199.258 225.565,199.310 225.365 C 199.363 225.164,199.363 224.836,199.310 224.635 C 199.258 224.435,199.215 224.599,199.215 225.000 M200.473 228.958 C 200.473 229.474,200.514 229.685,200.564 229.427 C 200.613 229.169,200.613 228.747,200.564 228.490 C 200.514 228.232,200.473 228.443,200.473 228.958 M200.265 232.917 C 200.265 233.432,200.306 233.643,200.355 233.385 C 200.405 233.128,200.405 232.706,200.355 232.448 C 200.306 232.190,200.265 232.401,200.265 232.917 M199.636 233.021 C 199.638 233.479,199.681 233.642,199.731 233.383 C 199.781 233.124,199.779 232.749,199.726 232.550 C 199.674 232.350,199.634 232.563,199.636 233.021 M199.792 236.667 C 199.792 237.010,199.885 237.292,200.000 237.292 C 200.115 237.292,200.208 237.010,200.208 236.667 C 200.208 236.323,200.115 236.042,200.000 236.042 C 199.885 236.042,199.792 236.323,199.792 236.667 M86.758 287.135 L 86.146 287.813 86.823 287.201 C 87.195 286.864,87.500 286.559,87.500 286.524 C 87.500 286.363,87.328 286.504,86.758 287.135 M70.833 300.274 C 70.833 300.309,71.138 300.614,71.510 300.951 L 72.188 301.563 71.576 300.885 C 71.005 300.254,70.833 300.113,70.833 300.274 M74.527 302.234 C 74.896 302.280,75.553 302.280,75.985 302.235 C 76.417 302.190,76.115 302.153,75.313 302.152 C 74.510 302.151,74.157 302.188,74.527 302.234 M136.413 302.237 C 137.019 302.279,137.956 302.279,138.497 302.236 C 139.037 302.193,138.542 302.159,137.396 302.159 C 136.250 302.160,135.808 302.195,136.413 302.237 M199.010 302.236 C 199.555 302.279,200.445 302.279,200.990 302.236 C 201.534 302.194,201.089 302.158,200.000 302.158 C 198.911 302.158,198.466 302.194,199.010 302.236 M261.622 302.237 C 262.227 302.279,263.164 302.279,263.705 302.236 C 264.245 302.193,263.750 302.159,262.604 302.159 C 261.458 302.160,261.016 302.195,261.622 302.237 M323.902 302.234 C 324.271 302.280,324.928 302.280,325.360 302.235 C 325.792 302.190,325.490 302.153,324.688 302.152 C 323.885 302.151,323.532 302.188,323.902 302.234 M105.052 303.695 C 105.596 303.738,106.487 303.738,107.031 303.695 C 107.576 303.652,107.130 303.617,106.042 303.617 C 104.953 303.617,104.508 303.652,105.052 303.695 M167.975 303.695 C 168.523 303.738,169.367 303.738,169.850 303.694 C 170.334 303.650,169.885 303.615,168.854 303.616 C 167.823 303.616,167.427 303.652,167.975 303.695 M230.267 303.695 C 230.814 303.738,231.658 303.738,232.142 303.694 C 232.625 303.650,232.177 303.615,231.146 303.616 C 230.115 303.616,229.719 303.652,230.267 303.695 M292.969 303.695 C 293.513 303.738,294.404 303.738,294.948 303.695 C 295.492 303.652,295.047 303.617,293.958 303.617 C 292.870 303.617,292.424 303.652,292.969 303.695 M74.325 318.064 C 74.584 318.114,74.959 318.112,75.159 318.060 C 75.358 318.008,75.146 317.967,74.688 317.969 C 74.229 317.972,74.066 318.014,74.325 318.064 M137.034 318.064 C 137.293 318.114,137.668 318.112,137.867 318.060 C 138.066 318.008,137.854 317.967,137.396 317.969 C 136.938 317.972,136.775 318.014,137.034 318.064 M199.534 318.064 C 199.793 318.114,200.168 318.112,200.367 318.060 C 200.566 318.008,200.354 317.967,199.896 317.969 C 199.438 317.972,199.275 318.014,199.534 318.064 M262.242 318.064 C 262.501 318.114,262.876 318.112,263.075 318.060 C 263.275 318.008,263.063 317.967,262.604 317.969 C 262.146 317.972,261.983 318.014,262.242 318.064 M324.950 318.064 C 325.209 318.114,325.584 318.112,325.784 318.060 C 325.983 318.008,325.771 317.967,325.313 317.969 C 324.854 317.972,324.691 318.014,324.950 318.064 " stroke="none" fill="#747474" fill-rule="evenodd"></path><path id="path3" d="M180.794 111.614 C 182.664 111.649,185.664 111.649,187.461 111.614 C 189.259 111.579,187.729 111.551,184.063 111.551 C 180.396 111.551,178.925 111.580,180.794 111.614 M212.669 111.614 C 214.539 111.649,217.539 111.649,219.336 111.614 C 221.134 111.579,219.604 111.551,215.938 111.551 C 212.271 111.551,210.800 111.580,212.669 111.614 " stroke="none" fill="#7c7c7c" fill-rule="evenodd"></path><path id="path4" d="M190.990 72.448 C 195.945 72.479,204.055 72.479,209.010 72.448 C 213.966 72.417,209.911 72.391,200.000 72.391 C 190.089 72.391,186.034 72.417,190.990 72.448 M170.088 88.958 C 170.088 91.422,170.119 92.430,170.155 91.198 C 170.192 89.966,170.192 87.951,170.155 86.719 C 170.119 85.487,170.088 86.495,170.088 88.958 M229.880 88.958 C 229.880 91.422,229.910 92.430,229.947 91.198 C 229.984 89.966,229.984 87.951,229.947 86.719 C 229.910 85.487,229.880 86.495,229.880 88.958 M197.596 151.875 C 197.596 157.089,197.623 159.221,197.656 156.615 C 197.689 154.008,197.689 149.742,197.656 147.135 C 197.623 144.529,197.596 146.661,197.596 151.875 M202.388 151.875 C 202.388 157.089,202.415 159.221,202.448 156.615 C 202.481 154.008,202.481 149.742,202.448 147.135 C 202.415 144.529,202.388 146.661,202.388 151.875 M153.846 151.979 C 153.846 157.135,153.873 159.215,153.906 156.600 C 153.939 153.986,153.939 149.767,153.906 147.225 C 153.873 144.684,153.846 146.823,153.846 151.979 M158.637 151.875 C 158.637 156.974,158.665 159.060,158.698 156.510 C 158.731 153.961,158.731 149.789,158.698 147.240 C 158.665 144.690,158.637 146.776,158.637 151.875 M241.346 151.875 C 241.346 156.974,241.373 159.060,241.406 156.510 C 241.439 153.961,241.439 149.789,241.406 147.240 C 241.373 144.690,241.346 146.776,241.346 151.875 M246.138 151.979 C 246.138 157.135,246.165 159.215,246.198 156.600 C 246.231 153.986,246.231 149.767,246.198 147.225 C 246.165 144.684,246.137 146.823,246.138 151.979 M114.887 151.979 C 114.887 157.021,114.915 159.054,114.948 156.496 C 114.981 153.939,114.981 149.814,114.948 147.330 C 114.914 144.845,114.887 146.938,114.887 151.979 M285.096 151.979 C 285.096 157.021,285.123 159.054,285.156 156.496 C 285.189 153.939,285.189 149.814,285.156 147.330 C 285.123 144.845,285.096 146.938,285.096 151.979 M197.595 176.458 C 197.595 181.328,197.623 183.320,197.656 180.885 C 197.689 178.451,197.689 174.466,197.656 172.031 C 197.623 169.596,197.595 171.589,197.595 176.458 M202.387 176.458 C 202.387 181.328,202.414 183.320,202.448 180.885 C 202.481 178.451,202.481 174.466,202.448 172.031 C 202.414 169.596,202.387 171.589,202.387 176.458 M114.887 177.083 C 114.887 182.182,114.915 184.268,114.948 181.719 C 114.981 179.169,114.981 174.997,114.948 172.448 C 114.915 169.898,114.887 171.984,114.887 177.083 M153.846 177.083 C 153.846 182.182,153.873 184.268,153.906 181.719 C 153.939 179.169,153.939 174.997,153.906 172.448 C 153.873 169.898,153.846 171.984,153.846 177.083 M158.637 177.083 C 158.637 182.182,158.665 184.268,158.698 181.719 C 158.731 179.169,158.731 174.997,158.698 172.448 C 158.665 169.898,158.637 171.984,158.637 177.083 M241.346 177.083 C 241.346 182.182,241.373 184.268,241.406 181.719 C 241.439 179.169,241.439 174.997,241.406 172.448 C 241.373 169.898,241.346 171.984,241.346 177.083 M246.138 177.188 C 246.138 182.344,246.165 184.423,246.198 181.809 C 246.231 179.194,246.231 174.975,246.198 172.434 C 246.165 169.892,246.137 172.031,246.138 177.188 M285.096 177.083 C 285.096 182.182,285.123 184.268,285.156 181.719 C 285.189 179.169,285.189 174.997,285.156 172.448 C 285.123 169.898,285.096 171.984,285.096 177.083 M202.152 193.438 C 202.153 194.240,202.190 194.542,202.235 194.110 C 202.280 193.678,202.280 193.021,202.234 192.652 C 202.188 192.282,202.151 192.635,202.152 193.438 M114.882 198.333 C 114.882 201.255,114.912 202.451,114.947 200.990 C 114.983 199.529,114.983 197.138,114.947 195.677 C 114.912 194.216,114.882 195.411,114.882 198.333 M153.812 194.167 C 153.812 194.797,153.851 195.055,153.899 194.740 C 153.947 194.424,153.947 193.909,153.899 193.594 C 153.851 193.279,153.812 193.536,153.812 194.167 M246.104 194.167 C 246.104 194.797,246.143 195.055,246.191 194.740 C 246.239 194.424,246.239 193.909,246.191 193.594 C 246.143 193.279,246.104 193.536,246.104 194.167 M285.091 198.333 C 285.091 201.255,285.120 202.451,285.156 200.990 C 285.191 199.529,285.191 197.138,285.156 195.677 C 285.120 194.216,285.091 195.411,285.091 198.333 M197.775 194.583 C 197.775 195.328,197.813 195.633,197.859 195.260 C 197.905 194.888,197.905 194.279,197.859 193.906 C 197.813 193.534,197.775 193.839,197.775 194.583 M201.935 197.813 C 201.936 198.385,201.977 198.595,202.024 198.278 C 202.072 197.962,202.071 197.493,202.022 197.237 C 201.972 196.980,201.933 197.240,201.935 197.813 M197.979 198.958 C 197.979 199.589,198.018 199.846,198.066 199.531 C 198.114 199.216,198.114 198.701,198.066 198.385 C 198.018 198.070,197.979 198.328,197.979 198.958 M201.726 201.979 C 201.728 202.552,201.768 202.762,201.816 202.445 C 201.864 202.128,201.863 201.660,201.813 201.403 C 201.764 201.147,201.725 201.406,201.726 201.979 M198.187 202.917 C 198.187 203.547,198.226 203.805,198.274 203.490 C 198.322 203.174,198.322 202.659,198.274 202.344 C 198.226 202.029,198.187 202.286,198.187 202.917 M201.521 206.042 C 201.521 206.672,201.560 206.930,201.608 206.615 C 201.655 206.299,201.655 205.784,201.608 205.469 C 201.560 205.154,201.521 205.411,201.521 206.042 M198.396 206.875 C 198.396 207.505,198.435 207.763,198.483 207.448 C 198.530 207.133,198.530 206.617,198.483 206.302 C 198.435 205.987,198.396 206.245,198.396 206.875 M201.312 210.208 C 201.312 210.839,201.351 211.096,201.399 210.781 C 201.447 210.466,201.447 209.951,201.399 209.635 C 201.351 209.320,201.312 209.578,201.312 210.208 M180.784 210.564 C 181.043 210.614,181.418 210.612,181.617 210.560 C 181.816 210.508,181.604 210.467,181.146 210.469 C 180.688 210.472,180.525 210.514,180.784 210.564 M198.594 211.146 C 198.597 211.604,198.639 211.767,198.689 211.508 C 198.739 211.249,198.737 210.874,198.685 210.675 C 198.633 210.475,198.592 210.688,198.594 211.146 M218.492 210.564 C 218.751 210.614,219.126 210.612,219.325 210.560 C 219.525 210.508,219.313 210.467,218.854 210.469 C 218.396 210.472,218.233 210.514,218.492 210.564 M108.542 212.604 C 108.036 213.120,107.668 213.542,107.726 213.542 C 107.783 213.542,108.244 213.120,108.750 212.604 C 109.256 212.089,109.623 211.667,109.566 211.667 C 109.509 211.667,109.048 212.089,108.542 212.604 M291.241 212.552 C 292.105 213.472,292.292 213.637,292.292 213.481 C 292.292 213.447,291.846 213.002,291.302 212.491 L 290.313 211.563 291.241 212.552 M201.094 214.688 C 201.097 215.146,201.139 215.309,201.189 215.050 C 201.239 214.791,201.237 214.416,201.185 214.216 C 201.133 214.017,201.092 214.229,201.094 214.688 M198.798 215.208 C 198.798 215.609,198.841 215.773,198.894 215.573 C 198.946 215.372,198.946 215.044,198.894 214.844 C 198.841 214.643,198.798 214.807,198.798 215.208 M108.646 229.583 C 109.093 230.042,109.506 230.417,109.564 230.417 C 109.621 230.417,109.302 230.042,108.854 229.583 C 108.407 229.125,107.994 228.750,107.936 228.750 C 107.879 228.750,108.198 229.125,108.646 229.583 M291.136 229.635 L 290.313 230.521 291.198 229.697 C 292.021 228.931,292.179 228.750,292.021 228.750 C 291.987 228.750,291.589 229.148,291.136 229.635 M199.792 235.521 C 199.792 235.807,199.885 236.042,200.000 236.042 C 200.115 236.042,200.208 235.807,200.208 235.521 C 200.208 235.234,200.115 235.000,200.000 235.000 C 199.885 235.000,199.792 235.234,199.792 235.521 M123.854 242.917 C 125.111 244.177,126.186 245.208,126.243 245.208 C 126.300 245.208,125.319 244.177,124.063 242.917 C 122.806 241.656,121.731 240.625,121.674 240.625 C 121.616 240.625,122.598 241.656,123.854 242.917 M275.934 242.969 L 273.646 245.313 275.990 243.024 C 278.167 240.899,278.428 240.625,278.278 240.625 C 278.247 240.625,277.192 241.680,275.934 242.969 M168.284 273.481 C 168.543 273.531,168.918 273.529,169.117 273.476 C 169.316 273.424,169.104 273.384,168.646 273.386 C 168.188 273.388,168.025 273.431,168.284 273.481 M230.885 273.477 C 231.086 273.529,231.414 273.529,231.615 273.477 C 231.815 273.425,231.651 273.382,231.250 273.382 C 230.849 273.382,230.685 273.425,230.885 273.477 M190.833 283.190 C 190.833 283.226,191.138 283.531,191.510 283.867 L 192.188 284.479 191.576 283.802 C 191.005 283.171,190.833 283.029,190.833 283.190 M124.792 286.524 C 124.792 286.559,125.096 286.864,125.469 287.201 L 126.146 287.813 125.534 287.135 C 124.964 286.504,124.792 286.363,124.792 286.524 M274.466 287.135 L 273.854 287.813 274.531 287.201 C 275.162 286.630,275.304 286.458,275.143 286.458 C 275.107 286.458,274.803 286.763,274.466 287.135 M85.924 287.760 L 85.313 288.438 85.990 287.826 C 86.621 287.255,86.762 287.083,86.601 287.083 C 86.566 287.083,86.261 287.388,85.924 287.760 M313.333 287.149 C 313.333 287.184,313.638 287.489,314.010 287.826 L 314.688 288.438 314.076 287.760 C 313.505 287.129,313.333 286.988,313.333 287.149 M199.219 287.860 C 199.648 287.905,200.352 287.905,200.781 287.860 C 201.211 287.815,200.859 287.778,200.000 287.778 C 199.141 287.778,198.789 287.815,199.219 287.860 M104.325 288.064 C 104.584 288.114,104.959 288.112,105.159 288.060 C 105.358 288.008,105.146 287.967,104.688 287.969 C 104.229 287.972,104.066 288.014,104.325 288.064 M107.135 288.060 C 107.336 288.113,107.664 288.113,107.865 288.060 C 108.065 288.008,107.901 287.965,107.500 287.965 C 107.099 287.965,106.935 288.008,107.135 288.060 M166.927 288.060 C 167.128 288.113,167.456 288.113,167.656 288.060 C 167.857 288.008,167.693 287.965,167.292 287.965 C 166.891 287.965,166.727 288.008,166.927 288.060 M169.742 288.064 C 170.001 288.114,170.376 288.112,170.575 288.060 C 170.775 288.008,170.563 287.967,170.104 287.969 C 169.646 287.972,169.483 288.014,169.742 288.064 M229.534 288.064 C 229.793 288.114,230.168 288.112,230.367 288.060 C 230.566 288.008,230.354 287.967,229.896 287.969 C 229.438 287.972,229.275 288.014,229.534 288.064 M232.344 288.060 C 232.544 288.113,232.872 288.113,233.073 288.060 C 233.273 288.008,233.109 287.965,232.708 287.965 C 232.307 287.965,232.143 288.008,232.344 288.060 M292.135 288.060 C 292.336 288.113,292.664 288.113,292.865 288.060 C 293.065 288.008,292.901 287.965,292.500 287.965 C 292.099 287.965,291.935 288.008,292.135 288.060 M294.950 288.064 C 295.209 288.114,295.584 288.112,295.784 288.060 C 295.983 288.008,295.771 287.967,295.313 287.969 C 294.854 287.972,294.691 288.014,294.950 288.064 M74.638 292.649 C 74.955 292.697,75.424 292.696,75.680 292.647 C 75.936 292.597,75.677 292.558,75.104 292.560 C 74.531 292.561,74.322 292.602,74.638 292.649 M136.610 292.650 C 136.980 292.696,137.636 292.697,138.068 292.652 C 138.501 292.607,138.198 292.569,137.396 292.568 C 136.594 292.567,136.240 292.604,136.610 292.650 M199.323 292.651 C 199.695 292.697,200.305 292.697,200.677 292.651 C 201.049 292.604,200.745 292.567,200.000 292.567 C 199.255 292.567,198.951 292.604,199.323 292.651 M261.818 292.650 C 262.188 292.696,262.844 292.697,263.277 292.652 C 263.709 292.607,263.406 292.569,262.604 292.568 C 261.802 292.567,261.448 292.604,261.818 292.650 M324.430 292.649 C 324.747 292.697,325.215 292.696,325.472 292.647 C 325.728 292.597,325.469 292.558,324.896 292.560 C 324.323 292.561,324.113 292.602,324.430 292.649 M117.708 293.190 C 117.708 293.226,118.013 293.531,118.385 293.867 L 119.063 294.479 118.451 293.802 C 117.880 293.171,117.708 293.029,117.708 293.190 M281.549 293.802 L 280.938 294.479 281.615 293.867 C 282.246 293.297,282.387 293.125,282.226 293.125 C 282.191 293.125,281.886 293.430,281.549 293.802 M92.905 294.531 L 92.188 295.313 92.969 294.595 C 93.696 293.926,93.846 293.750,93.687 293.750 C 93.652 293.750,93.300 294.102,92.905 294.531 M306.875 294.479 C 307.264 294.880,307.629 295.208,307.686 295.208 C 307.743 295.208,307.472 294.880,307.083 294.479 C 306.695 294.078,306.330 293.750,306.272 293.750 C 306.215 293.750,306.486 294.078,306.875 294.479 M217.905 294.740 L 217.188 295.521 217.969 294.803 C 218.696 294.135,218.846 293.958,218.687 293.958 C 218.652 293.958,218.300 294.310,217.905 294.740 M181.458 294.232 C 181.458 294.268,181.763 294.572,182.135 294.909 L 182.813 295.521 182.201 294.844 C 181.630 294.213,181.458 294.071,181.458 294.232 M87.591 311.510 L 86.979 312.188 87.656 311.576 C 88.287 311.005,88.429 310.833,88.268 310.833 C 88.232 310.833,87.928 311.138,87.591 311.510 M311.667 310.899 C 311.667 310.934,311.971 311.239,312.344 311.576 L 313.021 312.188 312.409 311.510 C 311.839 310.879,311.667 310.738,311.667 310.899 M105.260 313.277 C 105.690 313.322,106.393 313.322,106.823 313.277 C 107.253 313.232,106.901 313.195,106.042 313.195 C 105.182 313.195,104.831 313.232,105.260 313.277 M167.860 313.275 C 168.230 313.321,168.886 313.322,169.318 313.277 C 169.751 313.232,169.448 313.194,168.646 313.193 C 167.844 313.192,167.490 313.229,167.860 313.275 M230.469 313.277 C 230.898 313.322,231.602 313.322,232.031 313.277 C 232.461 313.232,232.109 313.195,231.250 313.195 C 230.391 313.195,230.039 313.232,230.469 313.277 M293.177 313.277 C 293.607 313.322,294.310 313.322,294.740 313.277 C 295.169 313.232,294.818 313.195,293.958 313.195 C 293.099 313.195,292.747 313.232,293.177 313.277 M75.677 317.852 C 75.878 317.904,76.206 317.904,76.406 317.852 C 76.607 317.800,76.443 317.757,76.042 317.757 C 75.641 317.757,75.477 317.800,75.677 317.852 M135.677 317.852 C 135.878 317.904,136.206 317.904,136.406 317.852 C 136.607 317.800,136.443 317.757,136.042 317.757 C 135.641 317.757,135.477 317.800,135.677 317.852 M138.385 317.852 C 138.586 317.904,138.914 317.904,139.115 317.852 C 139.315 317.800,139.151 317.757,138.750 317.757 C 138.349 317.757,138.185 317.800,138.385 317.852 M200.885 317.852 C 201.086 317.904,201.414 317.904,201.615 317.852 C 201.815 317.800,201.651 317.757,201.250 317.757 C 200.849 317.757,200.685 317.800,200.885 317.852 M260.885 317.852 C 261.086 317.904,261.414 317.904,261.615 317.852 C 261.815 317.800,261.651 317.757,261.250 317.757 C 260.849 317.757,260.685 317.800,260.885 317.852 M263.594 317.852 C 263.794 317.904,264.122 317.904,264.323 317.852 C 264.523 317.800,264.359 317.757,263.958 317.757 C 263.557 317.757,263.393 317.800,263.594 317.852 M323.594 317.852 C 323.794 317.904,324.122 317.904,324.323 317.852 C 324.523 317.800,324.359 317.757,323.958 317.757 C 323.557 317.757,323.393 317.800,323.594 317.852 M118.333 319.024 C 118.333 319.059,118.638 319.364,119.010 319.701 L 119.688 320.313 119.076 319.635 C 118.505 319.004,118.333 318.863,118.333 319.024 M280.924 319.635 L 280.313 320.313 280.990 319.701 C 281.621 319.130,281.762 318.958,281.601 318.958 C 281.566 318.958,281.261 319.263,280.924 319.635 M74.635 327.649 C 74.951 327.697,75.466 327.697,75.781 327.649 C 76.096 327.601,75.839 327.562,75.208 327.562 C 74.578 327.562,74.320 327.601,74.635 327.649 M136.620 327.653 C 137.110 327.697,137.860 327.696,138.287 327.651 C 138.713 327.607,138.313 327.571,137.396 327.571 C 136.479 327.572,136.130 327.609,136.620 327.653 M199.219 327.652 C 199.648 327.697,200.352 327.697,200.781 327.652 C 201.211 327.607,200.859 327.570,200.000 327.570 C 199.141 327.570,198.789 327.607,199.219 327.652 M261.719 327.652 C 262.148 327.697,262.852 327.697,263.281 327.652 C 263.711 327.607,263.359 327.570,262.500 327.570 C 261.641 327.570,261.289 327.607,261.719 327.652 M324.219 327.649 C 324.534 327.697,325.049 327.697,325.365 327.649 C 325.680 327.601,325.422 327.562,324.792 327.562 C 324.161 327.562,323.904 327.601,324.219 327.649 " stroke="none" fill="#9f9f9f" fill-rule="evenodd"></path></g></svg>