<svg id="svg" version="1.1" xmlns="http://www.w3.org/2000/svg" xmlns:xlink="http://www.w3.org/1999/xlink" width="400" height="409.04761904761904" viewBox="0, 0, 400,409.04761904761904"><g id="svgg"><path id="path0" d="M164.600 70.408 C 160.789 70.775,146.122 73.078,145.621 73.387 C 145.458 73.488,143.555 73.953,141.392 74.422 C 104.191 82.482,68.121 113.168,54.200 148.600 C 53.595 150.140,52.942 151.571,52.750 151.780 C 52.557 151.989,52.400 152.544,52.400 153.013 C 52.400 153.483,52.284 153.983,52.141 154.125 C 51.289 154.978,47.885 166.199,46.234 173.600 C 43.836 184.349,42.846 192.677,42.529 204.764 L 42.284 214.129 47.042 213.868 C 49.659 213.724,54.365 213.302,57.500 212.929 L 63.200 212.252 63.201 206.426 C 63.204 186.181,67.388 167.604,74.235 157.438 C 75.895 154.972,75.882 154.930,76.162 163.600 C 76.286 167.450,76.507 172.984,76.654 175.899 L 76.921 181.197 78.160 182.118 C 78.842 182.624,81.650 184.463,84.400 186.204 C 92.860 191.560,97.286 195.516,100.386 200.494 C 102.048 203.162,102.074 203.182,103.132 202.637 C 103.719 202.334,106.720 201.331,109.800 200.409 C 112.880 199.487,117.380 198.065,119.800 197.248 L 124.200 195.763 124.317 192.401 C 124.465 188.184,124.497 188.150,128.710 187.816 C 143.775 186.621,151.601 182.320,168.864 165.749 C 172.679 162.086,176.205 158.824,176.700 158.499 C 177.961 157.671,177.873 157.399,175.454 154.644 C 169.526 147.891,169.499 147.601,173.964 138.763 C 178.180 130.418,177.994 131.136,176.162 130.262 C 170.877 127.742,167.877 122.895,164.431 111.308 C 162.364 104.358,162.083 105.406,167.581 99.561 C 174.453 92.255,175.392 91.600,178.994 91.600 C 187.128 91.600,205.506 94.748,207.390 96.464 C 207.632 96.685,206.921 97.613,205.508 98.917 C 202.104 102.060,200.994 105.853,202.750 108.338 C 205.919 112.824,209.033 121.853,209.448 127.762 L 209.708 131.459 211.483 132.400 C 212.459 132.918,214.999 134.585,217.129 136.104 C 224.088 141.070,227.266 142.188,228.596 140.140 C 234.673 130.784,252.116 124.827,263.653 128.168 C 265.492 128.701,267.030 129.104,267.070 129.063 C 267.220 128.913,261.669 122.325,257.400 117.586 C 247.322 106.400,242.800 97.792,242.800 89.793 L 242.800 88.353 235.500 84.797 C 210.898 72.812,187.964 68.157,164.600 70.408 M269.400 84.557 C 267.656 85.385,265.281 87.499,263.653 89.671 C 262.351 91.408,269.202 100.749,288.391 123.400 C 294.894 131.076,300.124 137.715,302.903 141.822 C 304.338 143.942,304.322 144.010,302.100 145.362 C 297.799 147.980,286.980 154.102,284.052 155.574 L 280.912 157.152 277.156 155.823 C 275.090 155.092,271.600 153.640,269.400 152.598 C 258.012 147.201,252.093 146.631,246.771 150.421 C 243.879 152.480,247.572 158.026,256.320 164.757 C 268.067 173.796,268.483 174.713,268.572 191.800 C 268.656 207.893,268.835 208.491,273.306 207.611 C 280.477 206.200,282.683 203.026,286.656 188.400 C 289.259 178.820,289.340 178.733,298.400 175.845 C 300.488 175.179,305.382 173.434,310.800 171.422 C 316.022 169.483,315.822 169.426,316.613 173.100 C 316.980 174.805,317.614 177.550,318.022 179.200 C 318.869 182.628,320.414 191.878,321.797 201.800 C 323.103 211.174,325.153 223.952,325.583 225.400 C 325.779 226.060,326.337 228.490,326.822 230.800 C 327.966 236.238,328.550 236.487,336.150 234.781 C 338.158 234.330,340.183 233.882,340.650 233.785 C 341.229 233.666,341.633 233.131,341.917 232.105 C 346.494 215.596,349.113 202.800,352.992 178.000 C 353.525 174.590,354.622 168.110,355.430 163.600 C 356.238 159.090,356.935 155.007,356.979 154.526 C 357.093 153.280,357.801 152.566,359.932 151.546 C 384.726 139.684,400.609 124.394,394.349 118.412 C 387.197 111.576,374.246 112.249,353.116 120.554 C 350.539 121.566,347.633 122.608,346.657 122.869 L 344.884 123.344 339.542 120.424 C 334.195 117.501,325.832 112.672,323.200 110.988 C 322.430 110.495,319.317 108.586,316.281 106.746 C 313.246 104.906,308.836 102.206,306.481 100.746 C 304.127 99.287,300.760 97.225,299.000 96.164 C 297.240 95.102,293.846 93.004,291.457 91.501 C 278.905 83.600,274.403 82.183,269.400 84.557 M377.392 121.767 C 381.294 124.743,381.870 131.745,378.484 135.034 C 376.771 136.697,376.624 136.611,376.032 133.602 C 375.540 131.102,373.859 127.582,371.351 123.805 C 369.346 120.785,369.625 120.266,373.149 120.465 C 375.409 120.593,376.151 120.820,377.392 121.767 M230.200 171.831 C 226.865 173.689,206.500 183.449,200.200 186.208 C 185.835 192.498,168.129 199.841,161.200 202.381 C 159.550 202.986,156.040 204.306,153.400 205.313 C 147.581 207.535,138.554 210.874,134.200 212.416 C 132.440 213.039,129.200 214.203,127.000 215.002 C 68.847 236.128,24.077 238.972,18.996 221.863 C 17.081 215.414,19.223 208.783,26.193 199.577 C 27.118 198.355,28.394 196.465,29.027 195.377 L 30.178 193.400 28.122 195.109 C 16.093 205.113,4.264 224.770,4.881 233.734 C 6.307 254.481,41.680 263.130,94.400 255.621 C 103.827 254.278,111.577 253.061,115.200 252.355 C 117.510 251.904,120.750 251.273,122.400 250.952 C 127.764 249.908,137.676 247.633,143.200 246.177 C 146.170 245.395,149.968 244.407,151.641 243.982 C 153.314 243.557,157.364 242.381,160.641 241.369 C 163.918 240.357,167.230 239.352,168.000 239.135 C 170.141 238.532,185.861 233.305,188.800 232.218 C 190.230 231.690,193.200 230.602,195.400 229.800 C 197.600 228.999,200.480 227.922,201.800 227.406 C 203.120 226.891,205.910 225.813,208.000 225.010 C 214.288 222.596,218.880 220.753,221.111 219.749 C 222.272 219.227,223.316 218.800,223.431 218.800 C 223.547 218.800,225.387 218.066,227.520 217.169 C 229.654 216.271,233.560 214.634,236.200 213.529 C 238.840 212.425,242.923 210.708,245.273 209.715 L 249.547 207.909 249.369 202.854 C 248.838 187.801,248.674 186.436,247.012 183.223 C 246.002 181.270,242.774 177.969,238.692 174.714 C 236.762 173.175,235.000 171.575,234.777 171.158 C 234.210 170.097,232.989 170.276,230.200 171.831 M301.044 208.400 C 299.446 212.834,298.861 214.123,297.592 216.001 C 290.729 226.157,274.775 230.585,260.904 226.182 C 257.069 224.965,257.688 224.916,253.845 226.739 C 249.807 228.654,248.564 229.200,238.400 233.529 L 230.200 237.021 230.082 239.691 C 229.900 243.814,230.946 245.489,236.103 249.332 C 241.890 253.644,241.902 253.197,235.838 259.184 C 230.717 264.240,230.899 263.721,232.368 269.058 C 233.026 271.446,233.939 275.290,234.399 277.600 C 235.992 285.606,238.153 291.419,240.631 294.364 L 241.711 295.647 240.764 296.324 C 238.537 297.913,228.624 303.468,224.200 305.604 C 208.896 312.994,196.860 315.868,179.600 316.253 L 170.200 316.463 172.400 314.374 C 173.610 313.225,175.460 311.483,176.512 310.503 C 179.900 307.346,180.803 304.229,179.901 298.800 L 179.602 297.000 183.301 295.438 C 190.900 292.228,196.400 288.880,196.400 287.464 C 196.400 284.171,199.358 277.278,203.631 270.616 L 206.140 266.703 205.656 264.894 C 204.649 261.129,202.012 258.820,195.555 256.050 C 193.036 254.969,190.299 253.705,189.473 253.241 L 187.972 252.398 183.086 253.954 C 172.403 257.357,170.282 258.000,169.739 258.000 C 169.429 258.000,168.505 258.298,167.687 258.662 C 166.869 259.026,166.077 259.300,165.926 259.270 C 165.775 259.241,164.897 259.483,163.976 259.809 C 163.054 260.134,161.944 260.400,161.510 260.400 C 161.076 260.400,160.154 260.662,159.460 260.983 C 158.767 261.303,156.310 262.011,154.000 262.554 C 146.845 264.239,137.617 266.650,137.366 266.901 C 136.950 267.317,137.710 268.183,141.069 271.126 C 146.557 275.933,146.757 276.440,144.258 279.220 C 140.341 283.577,140.375 290.617,144.385 305.326 C 146.635 313.581,146.953 313.087,140.689 311.056 C 123.953 305.631,111.638 297.821,96.371 282.951 C 87.402 274.215,86.722 273.987,76.209 276.194 C 73.189 276.828,70.120 277.200,67.909 277.200 C 63.644 277.200,63.606 276.703,68.356 283.084 C 105.425 332.884,163.705 350.729,222.000 330.128 C 273.947 311.770,313.186 256.079,303.399 214.600 C 302.305 209.961,301.369 207.498,301.044 208.400 " stroke="none" fill="#057cc4" fill-rule="evenodd"></path><path id="path1" d="M0.000 204.400 L 0.000 408.800 200.000 408.800 L 400.000 408.800 400.000 204.400 L 400.000 0.000 200.000 0.000 L 0.000 0.000 0.000 204.400 M160.607 50.400 C 159.966 50.702,160.115 53.175,160.800 53.608 C 161.320 53.937,161.312 53.989,160.743 53.994 C 159.889 54.002,159.600 53.186,159.600 50.767 C 159.600 48.883,159.630 48.830,160.315 49.500 C 160.752 49.927,160.866 50.278,160.607 50.400 M139.772 51.302 C 139.972 52.864,139.040 54.000,137.560 54.000 C 136.662 54.000,135.699 52.833,136.294 52.466 C 136.537 52.315,136.864 51.684,137.020 51.064 C 137.601 48.748,139.465 48.909,139.772 51.302 M348.062 50.100 C 348.244 52.726,347.667 54.000,346.295 54.000 C 345.352 54.000,345.520 50.152,346.489 49.536 C 347.395 48.962,347.998 49.178,348.062 50.100 M45.587 50.947 C 45.575 51.741,45.538 51.752,45.043 51.100 C 44.003 49.729,42.863 50.214,42.693 52.100 L 42.540 53.800 42.470 51.928 C 42.408 50.269,42.503 50.040,43.300 49.915 C 44.806 49.680,45.601 50.038,45.587 50.947 M61.111 50.223 C 61.604 50.568,61.982 51.236,61.960 51.723 C 61.923 52.530,61.898 52.521,61.638 51.600 C 61.402 50.763,61.113 50.600,59.870 50.600 C 58.583 50.600,58.475 50.533,59.068 50.100 C 59.938 49.465,60.038 49.471,61.111 50.223 M157.800 50.000 C 158.403 50.259,158.158 50.344,156.800 50.344 C 155.442 50.344,155.197 50.259,155.800 50.000 C 156.240 49.811,156.690 49.656,156.800 49.656 C 156.910 49.656,157.360 49.811,157.800 50.000 M253.968 50.747 C 253.948 51.161,253.863 51.217,253.735 50.900 C 253.167 49.493,251.249 50.364,251.093 52.100 L 250.940 53.800 250.870 51.928 C 250.808 50.269,250.903 50.040,251.700 49.915 C 253.096 49.697,254.003 50.030,253.968 50.747 M270.300 50.717 C 271.257 51.935,270.092 54.040,268.500 53.968 C 268.046 53.948,268.174 53.800,268.866 53.547 C 270.763 52.852,270.548 50.400,268.589 50.400 C 267.973 50.400,267.657 50.231,267.810 49.984 C 268.141 49.448,269.653 49.894,270.300 50.717 M352.000 49.953 C 352.000 50.148,351.640 50.401,351.200 50.516 C 350.760 50.631,350.400 50.575,350.400 50.392 C 350.400 50.209,350.715 49.976,351.100 49.876 C 351.485 49.775,351.845 49.672,351.900 49.646 C 351.955 49.621,352.000 49.759,352.000 49.953 M366.200 50.000 C 366.867 50.286,366.779 50.348,365.676 50.372 C 364.890 50.389,364.453 50.238,364.600 50.000 C 364.888 49.534,365.115 49.534,366.200 50.000 M369.600 50.000 C 370.085 50.314,370.028 50.389,369.300 50.394 C 368.805 50.397,368.400 50.220,368.400 50.000 C 368.400 49.499,368.824 49.499,369.600 50.000 M373.600 50.197 C 373.600 50.259,373.060 50.388,372.400 50.485 C 371.134 50.671,370.702 50.169,371.900 49.903 C 372.549 49.759,373.600 49.941,373.600 50.197 M41.000 51.600 C 40.864 51.820,40.178 51.979,39.476 51.953 L 38.200 51.905 39.400 51.600 C 41.140 51.157,41.274 51.157,41.000 51.600 M353.800 51.600 C 353.664 51.820,352.888 51.976,352.076 51.947 L 350.600 51.895 352.000 51.600 C 354.061 51.166,354.068 51.166,353.800 51.600 M257.551 52.948 C 256.975 54.213,256.568 54.286,256.278 53.177 C 256.111 52.536,256.178 52.450,256.583 52.786 C 256.977 53.113,257.158 53.003,257.335 52.326 C 257.463 51.836,257.672 51.539,257.799 51.666 C 257.926 51.793,257.814 52.370,257.551 52.948 M352.118 53.384 C 352.713 53.376,353.200 53.511,353.200 53.684 C 353.200 54.136,351.686 54.074,350.774 53.586 C 350.348 53.358,350.003 52.773,350.006 52.286 C 350.012 51.430,350.029 51.433,350.524 52.400 C 350.884 53.102,351.359 53.395,352.118 53.384 M155.746 52.597 C 155.599 52.980,155.855 53.331,156.458 53.572 C 156.976 53.780,157.190 53.961,156.933 53.975 C 155.966 54.027,155.200 53.489,155.200 52.757 C 155.200 52.341,155.374 52.000,155.587 52.000 C 155.801 52.000,155.872 52.269,155.746 52.597 M40.600 53.600 C 40.464 53.820,39.868 53.982,39.276 53.960 L 38.200 53.920 39.200 53.600 C 40.620 53.145,40.881 53.145,40.600 53.600 M60.830 53.752 C 60.321 53.979,59.679 53.979,59.170 53.752 C 58.496 53.451,58.652 53.382,60.000 53.382 C 61.348 53.382,61.504 53.451,60.830 53.752 M186.000 69.810 C 196.037 70.742,206.533 72.765,213.000 75.013 C 223.925 78.811,229.834 81.295,239.543 86.172 C 243.339 88.078,243.600 88.437,243.600 91.758 C 243.600 98.107,250.466 110.070,259.047 118.671 C 259.745 119.370,261.729 121.637,263.458 123.708 C 269.280 130.688,269.362 130.897,265.695 129.409 C 254.480 124.858,236.871 129.975,229.419 139.951 C 227.299 142.788,224.283 142.085,217.897 137.263 C 215.205 135.231,210.098 132.000,209.577 132.000 C 209.426 132.000,209.176 130.536,209.019 128.746 C 208.474 122.489,206.430 115.759,203.529 110.667 C 202.798 109.384,201.984 107.949,201.720 107.480 C 200.520 105.347,202.311 100.688,205.213 98.390 C 206.106 97.682,206.742 97.008,206.625 96.892 C 205.928 96.194,199.065 94.440,194.563 93.810 C 193.662 93.683,192.312 93.385,191.563 93.147 C 190.813 92.909,187.009 92.621,183.109 92.508 L 176.018 92.301 174.633 93.517 C 173.871 94.186,173.012 94.883,172.724 95.067 C 172.435 95.250,170.182 97.570,167.717 100.223 L 163.236 105.046 163.839 107.423 C 167.075 120.165,170.802 126.793,176.400 129.764 C 178.658 130.962,178.834 130.123,174.485 138.878 L 170.771 146.356 171.383 147.821 C 171.974 149.235,174.472 152.978,175.374 153.800 C 175.615 154.020,176.406 154.960,177.132 155.890 L 178.451 157.580 176.946 158.890 C 174.897 160.674,171.021 164.318,166.831 168.400 C 152.978 181.897,144.091 186.742,130.800 188.040 C 124.548 188.651,124.634 188.587,124.928 192.400 C 125.226 196.265,125.587 195.938,118.600 198.148 C 115.300 199.192,110.116 200.867,107.080 201.870 C 104.044 202.872,101.501 203.627,101.429 203.547 C 101.357 203.466,100.893 202.596,100.397 201.614 C 99.094 199.030,96.731 196.038,94.544 194.200 C 91.385 191.546,87.147 188.393,85.835 187.722 C 85.156 187.374,83.880 186.602,83.000 186.006 C 82.120 185.410,80.282 184.220,78.915 183.361 C 77.548 182.503,76.346 181.530,76.243 181.200 C 76.040 180.547,75.380 162.712,75.432 159.300 C 75.477 156.382,75.157 156.615,72.618 161.349 C 67.185 171.478,64.434 184.574,64.035 202.200 L 63.800 212.600 61.200 212.894 C 59.770 213.056,57.610 213.390,56.400 213.637 C 55.190 213.884,51.481 214.178,48.158 214.290 L 42.115 214.494 41.838 210.347 C 41.574 206.399,42.679 189.642,43.562 184.200 C 45.222 173.979,49.821 156.495,51.821 152.800 C 52.119 152.250,53.293 149.550,54.430 146.800 C 55.567 144.050,56.638 141.620,56.811 141.400 C 56.984 141.180,58.144 139.056,59.389 136.679 C 67.047 122.061,82.827 103.637,94.232 96.000 C 94.725 95.670,96.598 94.365,98.396 93.100 C 100.193 91.835,101.751 90.800,101.859 90.800 C 101.966 90.800,102.643 90.350,103.364 89.800 C 104.086 89.250,104.804 88.800,104.960 88.800 C 105.116 88.800,106.899 87.828,108.922 86.640 C 110.945 85.453,114.310 83.723,116.400 82.796 C 118.490 81.869,121.550 80.514,123.200 79.784 C 124.850 79.053,126.740 78.329,127.400 78.173 C 128.060 78.017,128.785 77.746,129.012 77.569 C 131.220 75.850,153.113 71.000,161.600 70.350 C 164.350 70.139,167.860 69.818,169.400 69.636 C 173.913 69.103,178.950 69.156,186.000 69.810 M278.892 83.867 C 280.500 84.495,288.025 88.682,292.000 91.160 C 292.990 91.777,296.652 94.026,300.138 96.157 C 303.624 98.289,306.954 100.370,307.538 100.782 C 308.122 101.194,312.290 103.769,316.800 106.505 C 332.441 115.991,337.235 118.754,342.707 121.437 L 345.613 122.862 349.907 121.197 C 358.758 117.764,360.720 117.073,365.400 115.742 C 379.165 111.828,387.217 112.329,394.100 117.529 C 399.878 121.894,390.496 135.279,375.800 143.635 C 374.480 144.386,373.110 145.180,372.756 145.400 C 371.574 146.134,367.904 148.195,367.058 148.600 C 359.247 152.343,358.199 153.021,358.256 154.293 C 358.297 155.208,358.163 155.484,357.756 155.328 C 357.372 155.181,357.200 155.426,357.200 156.120 C 357.200 156.672,356.748 159.435,356.196 162.258 C 355.644 165.082,354.743 170.364,354.195 173.996 C 353.646 177.628,352.938 182.040,352.623 183.800 C 352.307 185.560,351.480 190.330,350.785 194.400 C 348.541 207.543,346.657 216.519,344.070 226.400 C 342.013 234.260,342.115 234.081,339.367 234.649 C 329.544 236.681,328.237 236.664,327.332 234.498 C 326.386 232.235,323.689 218.967,322.799 212.200 C 322.539 210.220,321.994 206.440,321.588 203.800 C 321.183 201.160,320.560 197.020,320.204 194.600 C 318.383 182.215,315.716 170.268,314.831 170.529 C 314.484 170.631,312.400 171.381,310.200 172.196 C 301.491 175.421,298.526 176.478,296.800 176.972 C 295.810 177.255,293.926 177.917,292.613 178.443 L 290.227 179.400 289.101 182.400 C 288.482 184.050,287.363 187.760,286.614 190.644 C 283.287 203.455,279.520 207.969,272.139 207.991 L 269.278 208.000 268.780 206.700 C 268.442 205.818,268.195 201.218,268.014 192.400 C 267.733 178.725,267.708 178.531,265.659 174.516 C 264.531 172.305,260.822 168.634,256.976 165.924 C 255.207 164.677,252.508 162.514,250.979 161.117 C 249.451 159.720,247.705 158.361,247.100 158.097 C 246.495 157.833,246.014 157.388,246.032 157.109 C 246.056 156.708,246.106 156.706,246.265 157.100 C 246.376 157.375,246.750 157.600,247.095 157.600 C 247.638 157.600,247.626 157.491,247.009 156.809 C 246.615 156.375,246.182 156.087,246.047 156.171 C 245.911 156.255,245.776 155.936,245.746 155.462 C 245.717 154.988,245.557 153.916,245.391 153.080 C 245.014 151.184,246.245 149.709,249.301 148.395 C 254.265 146.259,259.534 147.294,270.600 152.576 C 274.079 154.237,278.408 155.942,279.905 156.241 C 280.767 156.413,281.991 155.975,285.019 154.409 C 289.048 152.325,301.143 145.445,302.724 144.338 L 303.584 143.736 302.318 141.968 C 298.759 137.000,296.409 133.899,294.005 131.000 C 292.545 129.240,290.480 126.720,289.416 125.400 C 287.716 123.292,284.155 119.141,282.400 117.223 C 282.070 116.862,281.087 115.675,280.215 114.584 C 279.344 113.493,277.618 111.430,276.380 110.000 C 270.136 102.789,262.550 91.419,263.012 89.964 C 264.597 84.968,273.228 81.654,278.892 83.867 M371.300 120.812 C 370.136 121.280,370.148 121.349,371.789 123.585 C 373.677 126.157,376.418 131.967,376.686 133.966 C 376.946 135.902,377.016 135.926,378.290 134.500 C 383.189 129.019,377.687 118.245,371.300 120.812 M35.522 155.480 C 35.626 156.909,35.492 157.252,34.605 157.833 C 33.410 158.617,31.600 158.106,31.600 156.985 C 31.600 156.637,31.780 156.464,32.000 156.600 C 32.220 156.736,32.400 156.568,32.400 156.227 C 32.400 153.733,35.343 153.029,35.522 155.480 M243.748 154.500 C 244.467 157.184,243.258 158.853,241.210 158.004 C 239.904 157.463,239.678 157.009,240.549 156.675 C 240.850 156.559,241.224 155.957,241.380 155.336 C 241.844 153.487,243.335 152.961,243.748 154.500 M374.925 156.522 C 374.650 156.966,374.558 156.812,374.253 155.400 L 373.993 154.200 374.562 155.195 C 374.874 155.742,375.038 156.339,374.925 156.522 M49.441 156.063 C 48.714 157.100,48.579 156.760,49.232 155.539 C 49.470 155.095,49.759 154.825,49.873 154.940 C 49.988 155.054,49.793 155.560,49.441 156.063 M360.400 156.036 C 360.400 156.470,360.670 156.929,361.000 157.055 C 361.667 157.311,361.820 158.000,361.210 158.000 C 360.791 158.000,359.600 155.927,359.600 155.196 C 359.600 154.952,359.780 154.864,360.000 155.000 C 360.220 155.136,360.400 155.602,360.400 156.036 M37.954 157.600 C 37.984 158.133,37.945 158.133,37.600 157.600 C 37.387 157.270,37.227 156.550,37.246 156.000 L 37.280 155.000 37.600 156.000 C 37.776 156.550,37.935 157.270,37.954 157.600 M235.298 170.976 C 235.902 171.733,237.703 173.336,239.302 174.539 C 243.322 177.564,246.374 180.922,247.932 184.031 L 249.250 186.663 249.610 195.431 C 249.808 200.254,250.014 205.100,250.068 206.200 L 250.166 208.200 246.783 209.680 C 244.922 210.494,242.050 211.700,240.400 212.360 C 238.750 213.020,235.870 214.216,234.000 215.019 C 224.279 219.191,213.610 223.474,203.200 227.384 C 199.350 228.830,194.850 230.528,193.200 231.157 C 187.902 233.176,182.401 235.060,173.800 237.800 C 169.180 239.272,164.320 240.847,163.000 241.299 C 161.680 241.752,159.430 242.435,158.000 242.818 C 149.321 245.141,142.114 247.006,138.800 247.786 C 136.710 248.278,133.920 248.963,132.600 249.309 C 131.280 249.655,126.330 250.679,121.600 251.584 C 116.870 252.489,111.740 253.483,110.200 253.792 C 108.660 254.101,105.060 254.644,102.200 254.998 C 99.340 255.353,95.470 255.896,93.600 256.206 C 89.583 256.873,78.567 257.878,71.800 258.196 C 62.779 258.620,62.008 258.757,61.946 259.955 C 61.896 260.897,61.874 260.911,61.718 260.100 C 61.622 259.605,61.422 259.184,61.272 259.164 C 61.122 259.144,59.200 259.063,57.000 258.984 C 54.800 258.905,51.782 258.735,50.293 258.606 C 48.096 258.414,47.543 258.484,47.354 258.975 C 47.149 259.509,47.053 259.511,46.529 258.986 C 45.803 258.260,45.157 258.575,45.450 259.513 C 45.650 260.150,45.623 260.149,45.089 259.500 C 43.969 258.141,42.800 258.601,42.800 260.400 C 42.800 261.280,42.645 262.000,42.455 262.000 C 42.266 262.000,42.196 261.553,42.301 261.007 C 42.644 259.212,42.097 258.000,40.943 258.000 C 40.056 258.000,39.977 258.090,40.408 258.609 C 40.830 259.118,40.806 259.177,40.257 258.966 C 39.895 258.828,39.600 258.532,39.600 258.308 C 39.600 258.081,39.326 258.129,38.977 258.419 C 38.464 258.845,38.376 258.838,38.477 258.378 C 38.568 257.965,37.615 257.651,34.800 257.167 C 19.279 254.500,8.015 247.183,5.337 238.028 C 2.392 227.962,10.808 210.550,24.996 197.356 C 31.686 191.136,32.836 191.475,27.860 198.202 C 20.585 208.036,19.065 211.352,19.061 217.409 C 19.054 226.353,24.007 230.163,37.800 231.823 C 44.658 232.649,66.500 231.774,68.403 230.598 C 68.545 230.511,71.437 229.975,74.830 229.409 C 78.224 228.842,81.540 228.196,82.200 227.974 C 82.860 227.752,85.200 227.199,87.400 226.746 C 89.600 226.293,93.110 225.396,95.200 224.752 C 102.396 222.536,104.208 221.999,107.094 221.228 C 108.686 220.802,110.168 220.343,110.387 220.208 C 110.605 220.073,112.183 219.533,113.892 219.008 C 115.601 218.483,118.800 217.393,121.000 216.587 C 123.200 215.781,126.440 214.612,128.200 213.990 C 131.265 212.906,135.024 211.551,142.400 208.869 C 145.538 207.728,149.394 206.274,156.000 203.741 C 157.430 203.193,159.854 202.299,161.386 201.756 C 162.918 201.213,165.168 200.340,166.386 199.817 C 167.604 199.294,171.210 197.840,174.400 196.585 C 177.590 195.330,181.696 193.605,183.524 192.752 C 185.352 191.898,187.024 191.200,187.240 191.200 C 187.456 191.200,188.751 190.684,190.117 190.053 C 192.258 189.065,196.304 187.273,200.600 185.410 C 206.454 182.871,215.404 178.616,223.400 174.569 C 234.401 169.001,233.854 169.166,235.298 170.976 M302.544 209.700 C 307.137 222.687,306.125 241.870,300.113 255.800 C 296.073 265.160,294.369 268.523,290.942 273.908 C 290.204 275.067,289.600 276.160,289.600 276.337 C 289.600 276.514,288.385 278.308,286.900 280.323 C 285.415 282.339,283.511 284.935,282.668 286.094 C 278.164 292.285,266.880 304.025,261.200 308.429 C 255.773 312.636,248.995 317.600,248.676 317.600 C 248.493 317.600,247.592 318.108,246.672 318.729 C 234.752 326.776,216.811 333.476,197.600 337.054 C 184.409 339.511,161.370 339.213,148.400 336.418 C 145.210 335.730,142.060 335.064,141.400 334.936 C 139.058 334.485,127.235 330.408,124.141 328.985 C 116.066 325.271,112.414 323.324,105.009 318.788 C 93.531 311.758,77.787 297.015,69.567 285.600 C 68.379 283.950,66.550 281.449,65.503 280.043 C 62.883 276.522,62.830 276.587,68.300 276.568 C 71.920 276.556,73.873 276.329,76.800 275.583 C 82.852 274.040,87.288 274.178,89.616 275.982 C 92.087 277.897,95.057 280.692,99.000 284.812 C 103.925 289.958,112.820 296.816,120.600 301.466 C 124.187 303.609,126.358 304.686,134.038 308.129 C 136.414 309.194,145.245 312.088,145.461 311.872 C 145.531 311.802,145.217 310.407,144.761 308.772 C 139.527 289.976,139.453 282.424,144.462 278.210 C 146.286 276.674,146.282 276.668,138.700 269.501 C 136.835 267.738,136.310 266.514,137.300 266.233 C 139.204 265.694,143.064 264.732,145.600 264.166 C 150.294 263.116,154.488 261.657,155.294 260.791 C 155.700 260.356,156.339 260.011,156.716 260.025 C 157.194 260.043,157.111 260.166,156.442 260.434 C 155.231 260.918,155.628 261.380,156.967 261.044 C 157.644 260.874,157.897 260.597,157.743 260.196 C 157.617 259.868,157.714 259.600,157.957 259.600 C 158.201 259.600,158.400 259.780,158.400 260.000 C 158.400 260.220,158.670 260.400,159.000 260.400 C 159.433 260.400,159.600 259.956,159.600 258.800 C 159.600 257.271,159.631 257.231,160.311 257.900 C 160.826 258.406,160.881 258.636,160.511 258.729 C 160.230 258.800,160.000 259.015,160.000 259.206 C 160.000 259.837,160.667 259.980,161.841 259.600 C 162.479 259.394,164.440 258.861,166.200 258.415 C 171.932 256.963,175.169 256.010,181.233 253.989 C 188.053 251.716,188.116 251.708,190.000 252.858 C 190.770 253.328,193.463 254.597,195.984 255.678 C 201.115 257.876,203.498 259.602,205.042 262.236 C 207.130 265.799,207.069 266.366,204.101 270.941 C 200.667 276.234,198.558 280.776,197.421 285.323 L 196.502 289.000 193.751 290.689 C 190.701 292.561,187.754 294.074,183.100 296.159 C 180.080 297.512,180.010 297.575,180.400 298.600 C 182.057 302.957,180.502 307.223,175.479 312.100 L 171.463 316.000 178.414 316.000 C 196.068 316.000,216.546 310.247,231.756 301.014 C 233.399 300.016,234.859 299.200,235.000 299.200 C 235.141 299.200,236.041 298.660,237.000 298.000 C 237.959 297.340,238.892 296.794,239.072 296.787 C 240.656 296.726,240.803 295.685,239.502 293.751 C 236.980 289.999,234.820 283.312,232.993 273.600 C 232.600 271.510,231.838 268.593,231.299 267.118 L 230.320 264.435 231.124 263.318 C 231.566 262.703,233.744 260.446,235.964 258.303 C 238.184 256.160,240.000 254.158,240.000 253.854 C 240.000 253.201,237.523 250.910,234.103 248.400 C 229.199 244.800,227.656 237.744,231.400 236.036 C 233.677 234.998,239.812 232.332,244.000 230.562 C 248.151 228.807,249.670 228.115,254.853 225.616 L 257.505 224.337 259.453 225.145 C 271.358 230.084,289.426 226.116,296.347 217.043 C 297.661 215.321,300.400 209.384,300.400 208.259 C 300.400 207.320,300.695 206.800,301.226 206.800 C 301.387 206.800,301.980 208.105,302.544 209.700 M139.741 259.758 C 139.864 261.328,138.980 262.400,137.560 262.400 C 136.662 262.400,135.699 261.233,136.294 260.866 C 136.537 260.715,136.864 260.084,137.020 259.464 C 137.609 257.115,139.549 257.325,139.741 259.758 M348.062 258.500 C 348.244 261.126,347.667 262.400,346.295 262.400 C 345.352 262.400,345.520 258.552,346.489 257.936 C 347.395 257.362,347.998 257.578,348.062 258.500 M158.000 258.400 C 158.436 258.682,158.108 258.788,156.800 258.788 C 155.492 258.788,155.164 258.682,155.600 258.400 C 155.930 258.187,156.470 258.012,156.800 258.012 C 157.130 258.012,157.670 258.187,158.000 258.400 M366.400 258.400 C 366.854 258.693,366.678 258.789,365.676 258.794 C 364.895 258.797,364.454 258.636,364.600 258.400 C 364.911 257.897,365.622 257.897,366.400 258.400 M373.372 258.355 C 373.493 258.551,373.054 258.789,372.396 258.886 C 371.122 259.073,370.724 258.583,371.900 258.276 C 373.040 257.978,373.143 257.983,373.372 258.355 M41.200 260.000 C 41.200 260.220,40.525 260.376,39.700 260.347 L 38.200 260.295 39.600 260.000 C 40.370 259.838,41.045 259.682,41.100 259.653 C 41.155 259.624,41.200 259.780,41.200 260.000 M353.800 260.000 C 353.664 260.220,352.888 260.376,352.076 260.347 L 350.600 260.295 352.000 260.000 C 354.061 259.566,354.068 259.566,353.800 260.000 M366.800 260.000 C 366.800 260.220,366.305 260.382,365.700 260.360 L 364.600 260.320 365.600 260.000 C 366.150 259.824,366.645 259.662,366.700 259.640 C 366.755 259.618,366.800 259.780,366.800 260.000 M352.118 261.784 C 352.713 261.776,353.200 261.911,353.200 262.084 C 353.200 262.536,351.686 262.474,350.774 261.986 C 350.348 261.758,350.003 261.173,350.006 260.686 C 350.012 259.830,350.029 259.833,350.524 260.800 C 350.884 261.502,351.359 261.795,352.118 261.784 M40.600 262.000 C 40.464 262.220,39.958 262.387,39.476 262.372 C 38.631 262.345,38.629 262.331,39.400 262.000 C 40.501 261.527,40.892 261.527,40.600 262.000 M60.830 262.152 C 60.321 262.379,59.679 262.379,59.170 262.152 C 58.496 261.851,58.652 261.782,60.000 261.782 C 61.348 261.782,61.504 261.851,60.830 262.152 M35.522 363.908 C 35.623 365.280,35.483 365.658,34.676 366.187 C 33.534 366.935,31.600 366.432,31.600 365.386 C 31.600 365.038,31.780 364.864,32.000 365.000 C 32.220 365.136,32.400 365.010,32.400 364.720 C 32.400 363.967,34.382 361.928,34.936 362.110 C 35.191 362.194,35.455 363.003,35.522 363.908 M56.480 362.707 C 55.903 362.899,55.828 366.000,56.400 366.000 C 56.620 366.000,56.800 366.174,56.800 366.387 C 56.800 366.601,56.530 366.671,56.200 366.545 C 55.770 366.380,55.600 365.707,55.600 364.170 C 55.600 362.316,55.692 362.060,56.280 362.286 C 56.705 362.449,56.780 362.607,56.480 362.707 M243.748 362.900 C 244.467 365.584,243.258 367.253,241.210 366.404 C 240.072 365.933,239.455 364.683,240.467 364.900 C 240.724 364.955,241.107 364.424,241.319 363.719 C 241.653 362.611,242.051 362.267,243.253 362.046 C 243.393 362.021,243.615 362.405,243.748 362.900 M265.100 362.713 C 264.103 362.920,264.084 366.000,265.080 366.000 C 265.579 366.000,265.642 366.118,265.315 366.445 C 264.509 367.251,264.000 366.387,264.000 364.214 C 264.000 362.189,264.048 362.088,264.900 362.321 C 265.632 362.522,265.669 362.595,265.100 362.713 M53.567 362.544 C 53.095 362.950,51.157 363.193,51.390 362.816 C 51.532 362.587,52.117 362.400,52.690 362.400 C 53.264 362.400,53.658 362.465,53.567 362.544 M149.608 363.300 C 150.002 364.112,149.989 364.132,149.478 363.500 C 148.304 362.049,146.979 362.860,146.697 365.202 C 146.550 366.417,146.520 366.355,146.464 364.729 C 146.413 363.251,146.547 362.820,147.100 362.676 C 148.594 362.285,149.188 362.433,149.608 363.300 M165.669 363.062 C 166.071 363.426,166.379 364.101,166.354 364.562 C 166.311 365.335,166.292 365.340,166.110 364.628 C 165.780 363.333,164.871 362.695,163.755 362.976 C 163.094 363.142,162.824 363.085,162.990 362.816 C 163.381 362.184,164.847 362.319,165.669 363.062 M261.967 362.544 C 261.495 362.950,259.557 363.193,259.790 362.816 C 259.932 362.587,260.517 362.400,261.090 362.400 C 261.664 362.400,262.058 362.465,261.967 362.544 M357.920 362.880 C 358.184 363.144,358.394 363.549,358.387 363.780 C 358.380 364.011,358.155 363.914,357.887 363.565 C 357.619 363.216,357.130 362.825,356.800 362.696 C 356.279 362.494,356.281 362.459,356.820 362.432 C 357.161 362.414,357.656 362.616,357.920 362.880 M262.800 364.533 C 262.800 365.643,262.620 366.274,262.300 366.286 C 262.025 366.296,261.525 366.420,261.189 366.561 C 260.252 366.954,258.864 365.792,259.500 365.147 C 259.903 364.739,260.000 364.778,260.000 365.347 C 260.000 366.316,262.138 366.089,262.326 365.100 C 262.425 364.576,262.174 364.386,261.329 364.346 C 260.349 364.298,260.322 364.268,261.124 364.115 C 261.633 364.017,262.147 363.682,262.267 363.369 C 262.642 362.392,262.800 362.737,262.800 364.533 M355.668 364.403 C 355.584 365.284,355.355 366.105,355.158 366.226 C 354.748 366.479,354.661 363.472,355.067 363.067 C 355.644 362.489,355.815 362.868,355.668 364.403 M360.400 364.429 C 360.400 364.831,360.714 365.336,361.097 365.550 C 361.480 365.765,361.657 366.076,361.490 366.243 C 361.065 366.669,360.549 366.058,359.781 364.218 C 359.186 362.793,359.184 362.689,359.760 363.167 C 360.112 363.459,360.400 364.027,360.400 364.429 M49.441 364.463 C 48.714 365.500,48.579 365.160,49.232 363.939 C 49.470 363.495,49.759 363.225,49.873 363.340 C 49.988 363.454,49.793 363.960,49.441 364.463 M375.200 364.373 C 375.200 364.524,374.975 364.955,374.700 365.331 C 374.264 365.927,374.200 365.838,374.200 364.641 C 374.200 363.588,374.317 363.365,374.700 363.683 C 374.975 363.911,375.200 364.222,375.200 364.373 M37.966 366.000 C 37.985 366.533,37.945 366.533,37.600 366.000 C 37.387 365.670,37.222 365.040,37.234 364.600 L 37.256 363.800 37.600 364.600 C 37.789 365.040,37.954 365.670,37.966 366.000 M247.536 366.105 C 248.394 366.170,248.791 366.800,247.974 366.800 C 247.218 366.800,246.000 365.986,246.006 365.486 C 246.011 365.131,246.101 365.141,246.342 365.520 C 246.524 365.806,247.061 366.069,247.536 366.105 M54.286 366.152 C 54.422 366.289,54.248 366.400,53.899 366.400 C 53.551 366.400,53.021 366.494,52.721 366.609 C 52.422 366.724,51.846 366.576,51.442 366.280 C 50.788 365.802,50.890 365.752,52.373 365.824 C 53.289 365.868,54.149 366.016,54.286 366.152 M166.000 365.886 C 166.000 366.267,164.209 366.793,163.585 366.595 C 162.296 366.186,162.692 365.800,164.400 365.800 C 165.280 365.800,166.000 365.839,166.000 365.886 " stroke="none" fill="#f3f3f3" fill-rule="evenodd"></path><path id="path2" d="M170.900 69.876 C 171.285 69.976,171.915 69.976,172.300 69.876 C 172.685 69.775,172.370 69.693,171.600 69.693 C 170.830 69.693,170.515 69.775,170.900 69.876 M181.300 69.876 C 181.685 69.976,182.315 69.976,182.700 69.876 C 183.085 69.775,182.770 69.693,182.000 69.693 C 181.230 69.693,180.915 69.775,181.300 69.876 M85.375 103.700 L 84.200 105.000 85.500 103.825 C 86.215 103.179,86.800 102.594,86.800 102.525 C 86.800 102.216,86.470 102.488,85.375 103.700 M379.100 113.489 C 379.815 113.578,380.985 113.578,381.700 113.489 C 382.415 113.401,381.830 113.328,380.400 113.328 C 378.970 113.328,378.385 113.401,379.100 113.489 M257.200 117.325 C 257.200 117.394,257.785 117.979,258.500 118.625 L 259.800 119.800 258.625 118.500 C 257.530 117.288,257.200 117.016,257.200 117.325 M255.100 127.489 C 255.815 127.578,256.985 127.578,257.700 127.489 C 258.415 127.401,257.830 127.328,256.400 127.328 C 254.970 127.328,254.385 127.401,255.100 127.489 M209.301 130.200 C 209.305 131.080,209.387 131.393,209.483 130.895 C 209.579 130.398,209.575 129.678,209.475 129.295 C 209.375 128.913,209.296 129.320,209.301 130.200 M387.178 134.700 L 385.800 136.200 387.300 134.822 C 388.696 133.538,388.984 133.200,388.678 133.200 C 388.612 133.200,387.937 133.875,387.178 134.700 M173.375 161.700 L 172.200 163.000 173.500 161.825 C 174.712 160.730,174.984 160.400,174.675 160.400 C 174.606 160.400,174.021 160.985,173.375 161.700 M164.386 170.300 L 162.200 172.600 164.500 170.414 C 166.637 168.382,166.983 168.000,166.686 168.000 C 166.624 168.000,165.589 169.035,164.386 170.300 M234.000 170.125 C 234.000 170.194,234.585 170.779,235.300 171.425 L 236.600 172.600 235.425 171.300 C 234.330 170.088,234.000 169.816,234.000 170.125 M76.101 172.600 C 76.105 173.480,76.187 173.793,76.283 173.295 C 76.379 172.798,76.375 172.078,76.275 171.695 C 76.175 171.313,76.096 171.720,76.101 172.600 M268.114 189.800 C 268.117 190.900,268.195 191.303,268.287 190.695 C 268.379 190.086,268.377 189.186,268.282 188.695 C 268.187 188.203,268.111 188.700,268.114 189.800 M95.600 195.000 C 96.346 195.770,97.047 196.400,97.157 196.400 C 97.267 196.400,96.746 195.770,96.000 195.000 C 95.254 194.230,94.553 193.600,94.443 193.600 C 94.333 193.600,94.854 194.230,95.600 195.000 M63.701 197.000 C 63.705 197.880,63.787 198.193,63.883 197.695 C 63.979 197.198,63.975 196.478,63.875 196.095 C 63.775 195.713,63.696 196.120,63.701 197.000 M42.093 203.200 C 42.093 203.970,42.175 204.285,42.276 203.900 C 42.376 203.515,42.376 202.885,42.276 202.500 C 42.175 202.115,42.093 202.430,42.093 203.200 M42.102 213.600 C 42.229 214.070,42.994 214.206,45.632 214.228 L 49.000 214.257 45.812 214.110 C 43.943 214.024,42.483 213.764,42.282 213.482 C 42.039 213.141,41.987 213.175,42.102 213.600 M55.700 232.276 C 56.085 232.376,56.715 232.376,57.100 232.276 C 57.485 232.175,57.170 232.093,56.400 232.093 C 55.630 232.093,55.315 232.175,55.700 232.276 M42.100 232.676 C 42.485 232.776,43.115 232.776,43.500 232.676 C 43.885 232.575,43.570 232.493,42.800 232.493 C 42.030 232.493,41.715 232.575,42.100 232.676 M48.505 232.687 C 49.114 232.779,50.014 232.777,50.505 232.682 C 50.997 232.587,50.500 232.511,49.400 232.514 C 48.300 232.517,47.897 232.595,48.505 232.687 M237.578 257.100 L 236.200 258.600 237.700 257.222 C 239.096 255.938,239.384 255.600,239.078 255.600 C 239.012 255.600,238.337 256.275,237.578 257.100 M67.107 277.090 C 67.826 277.179,68.906 277.177,69.507 277.086 C 70.108 276.995,69.520 276.922,68.200 276.924 C 66.880 276.926,66.388 277.001,67.107 277.090 M140.893 287.200 C 140.893 287.970,140.975 288.285,141.076 287.900 C 141.176 287.515,141.176 286.885,141.076 286.500 C 140.975 286.115,140.893 286.430,140.893 287.200 M273.375 296.500 L 272.200 297.800 273.500 296.625 C 274.215 295.979,274.800 295.394,274.800 295.325 C 274.800 295.016,274.470 295.288,273.375 296.500 M79.600 297.310 C 79.600 297.371,80.995 298.766,82.700 300.410 L 85.800 303.400 82.810 300.300 C 80.033 297.421,79.600 297.017,79.600 297.310 M267.775 302.100 L 266.600 303.400 267.900 302.225 C 268.615 301.579,269.200 300.994,269.200 300.925 C 269.200 300.616,268.870 300.888,267.775 302.100 M180.501 302.600 C 180.505 303.480,180.587 303.793,180.683 303.295 C 180.779 302.798,180.775 302.078,180.675 301.695 C 180.575 301.313,180.496 301.720,180.501 302.600 M180.900 316.276 C 181.285 316.376,181.915 316.376,182.300 316.276 C 182.685 316.175,182.370 316.093,181.600 316.093 C 180.830 316.093,180.515 316.175,180.900 316.276 M169.500 338.682 C 169.995 338.778,170.805 338.778,171.300 338.682 C 171.795 338.587,171.390 338.509,170.400 338.509 C 169.410 338.509,169.005 338.587,169.500 338.682 M177.705 338.687 C 178.314 338.779,179.214 338.777,179.705 338.682 C 180.197 338.587,179.700 338.511,178.600 338.514 C 177.500 338.517,177.097 338.595,177.705 338.687 " stroke="none" fill="#8bc1e0" fill-rule="evenodd"></path><path id="path3" d="M174.700 69.895 C 175.855 69.976,177.745 69.976,178.900 69.895 C 180.055 69.814,179.110 69.748,176.800 69.748 C 174.490 69.748,173.545 69.814,174.700 69.895 M272.500 83.487 C 273.105 83.578,274.095 83.578,274.700 83.487 C 275.305 83.395,274.810 83.320,273.600 83.320 C 272.390 83.320,271.895 83.395,272.500 83.487 M236.833 85.351 C 237.242 85.721,240.400 87.195,240.400 87.016 C 240.400 86.789,237.381 85.200,236.949 85.200 C 236.794 85.200,236.742 85.268,236.833 85.351 M265.781 86.900 L 264.200 88.600 265.900 87.019 C 267.481 85.548,267.784 85.200,267.481 85.200 C 267.416 85.200,266.651 85.965,265.781 86.900 M242.901 90.600 C 242.905 91.480,242.987 91.793,243.083 91.295 C 243.179 90.798,243.175 90.078,243.075 89.695 C 242.975 89.313,242.896 89.720,242.901 90.600 M177.913 91.895 C 179.076 91.976,180.876 91.976,181.913 91.893 C 182.951 91.811,182.000 91.745,179.800 91.746 C 177.600 91.747,176.751 91.814,177.913 91.895 M185.905 92.283 C 186.402 92.379,187.122 92.375,187.505 92.275 C 187.887 92.175,187.480 92.096,186.600 92.101 C 185.720 92.105,185.407 92.187,185.905 92.283 M294.600 93.407 C 295.040 93.766,295.760 94.235,296.200 94.451 L 297.000 94.844 296.200 94.193 C 295.760 93.834,295.040 93.365,294.600 93.149 L 293.800 92.756 294.600 93.407 M169.992 97.100 L 166.200 101.000 170.100 97.208 C 172.245 95.122,174.000 93.367,174.000 93.308 C 174.000 93.018,173.514 93.478,169.992 97.100 M206.790 96.385 C 207.287 96.700,207.226 96.933,206.401 97.879 L 205.423 99.000 206.561 97.942 C 207.645 96.933,207.701 95.993,206.676 96.006 C 206.386 96.010,206.430 96.158,206.790 96.385 M303.000 98.607 C 303.440 98.966,304.160 99.435,304.600 99.651 L 305.400 100.044 304.600 99.393 C 304.160 99.034,303.440 98.565,303.000 98.349 L 302.200 97.956 303.000 98.607 M87.375 102.100 L 86.200 103.400 87.500 102.225 C 88.712 101.130,88.984 100.800,88.675 100.800 C 88.606 100.800,88.021 101.385,87.375 102.100 M163.978 103.500 L 162.600 105.000 164.100 103.622 C 164.925 102.863,165.600 102.188,165.600 102.122 C 165.600 101.816,165.262 102.104,163.978 103.500 M80.592 108.500 L 77.000 112.200 80.700 108.608 C 82.735 106.633,84.400 104.968,84.400 104.908 C 84.400 104.618,83.928 105.064,80.592 108.500 M376.100 113.876 C 376.485 113.976,377.115 113.976,377.500 113.876 C 377.885 113.775,377.570 113.693,376.800 113.693 C 376.030 113.693,375.715 113.775,376.100 113.876 M383.505 113.883 C 384.002 113.979,384.722 113.975,385.105 113.875 C 385.487 113.775,385.080 113.696,384.200 113.701 C 383.320 113.705,383.007 113.787,383.505 113.883 M282.800 117.325 C 282.800 117.394,283.385 117.979,284.100 118.625 L 285.400 119.800 284.225 118.500 C 283.130 117.288,282.800 117.016,282.800 117.325 M259.983 120.500 C 260.964 121.545,261.819 122.400,261.883 122.400 C 262.184 122.400,261.866 122.041,260.100 120.383 L 258.200 118.600 259.983 120.500 M285.200 120.125 C 285.200 120.194,285.785 120.779,286.500 121.425 L 287.800 122.600 286.625 121.300 C 285.530 120.088,285.200 119.816,285.200 120.125 M68.400 122.800 C 67.930 123.460,67.636 124.000,67.746 124.000 C 67.856 124.000,68.330 123.460,68.800 122.800 C 69.270 122.140,69.564 121.600,69.454 121.600 C 69.344 121.600,68.870 122.140,68.400 122.800 M251.905 127.483 C 252.402 127.579,253.122 127.575,253.505 127.475 C 253.887 127.375,253.480 127.296,252.600 127.301 C 251.720 127.305,251.407 127.387,251.905 127.483 M209.633 131.749 C 210.045 132.117,212.400 133.200,212.400 133.021 C 212.400 132.790,210.182 131.600,209.753 131.600 C 209.596 131.600,209.542 131.667,209.633 131.749 M234.122 134.629 L 233.000 135.658 234.300 134.754 C 235.015 134.257,235.600 133.793,235.600 133.725 C 235.600 133.409,235.158 133.680,234.122 134.629 M369.900 146.229 C 368.405 147.040,368.496 147.378,370.000 146.600 C 370.660 146.259,371.200 145.894,371.200 145.790 C 371.200 145.532,371.157 145.547,369.900 146.229 M253.300 147.887 C 253.905 147.978,254.895 147.978,255.500 147.887 C 256.105 147.795,255.610 147.720,254.400 147.720 C 253.190 147.720,252.695 147.795,253.300 147.887 M363.900 149.429 C 362.405 150.240,362.496 150.578,364.000 149.800 C 364.660 149.459,365.200 149.094,365.200 148.990 C 365.200 148.732,365.157 148.747,363.900 149.429 M173.154 151.936 C 173.599 152.560,174.279 153.325,174.665 153.636 C 175.052 153.946,174.760 153.435,174.017 152.500 C 172.491 150.580,171.925 150.210,173.154 151.936 M272.800 154.200 C 273.350 154.514,273.980 154.772,274.200 154.772 C 274.420 154.772,274.150 154.514,273.600 154.200 C 273.050 153.886,272.420 153.628,272.200 153.628 C 271.980 153.628,272.250 153.886,272.800 154.200 M50.880 156.280 C 50.288 158.209,50.575 158.495,51.200 156.600 C 51.464 155.801,51.602 155.069,51.507 154.974 C 51.412 154.878,51.130 155.466,50.880 156.280 M75.598 160.719 L 75.796 165.800 75.911 161.033 C 75.975 158.412,75.886 156.125,75.713 155.952 C 75.541 155.779,75.489 157.924,75.598 160.719 M247.902 157.400 C 248.359 158.060,249.508 159.320,250.455 160.200 C 251.915 161.557,251.849 161.435,250.019 159.400 C 247.126 156.183,246.933 156.001,247.902 157.400 M169.991 164.700 L 166.600 168.200 170.100 164.809 C 173.351 161.659,173.782 161.200,173.491 161.200 C 173.431 161.200,171.856 162.775,169.991 164.700 M76.120 169.200 C 76.120 170.410,76.195 170.905,76.287 170.300 C 76.378 169.695,76.378 168.705,76.287 168.100 C 76.195 167.495,76.120 167.990,76.120 169.200 M315.656 170.400 C 315.656 170.730,315.811 171.360,316.000 171.800 C 316.217 172.304,316.344 172.378,316.344 172.000 C 316.344 171.670,316.189 171.040,316.000 170.600 C 315.783 170.096,315.656 170.022,315.656 170.400 M161.978 172.300 L 160.600 173.800 162.100 172.422 C 162.925 171.663,163.600 170.988,163.600 170.922 C 163.600 170.616,163.262 170.904,161.978 172.300 M308.600 172.214 C 307.600 172.696,307.566 172.751,308.400 172.548 C 309.533 172.271,310.807 171.621,310.200 171.630 C 309.980 171.633,309.260 171.896,308.600 172.214 M76.483 177.251 C 76.413 180.506,76.508 181.187,77.100 181.651 C 77.715 182.134,77.741 182.125,77.316 181.578 C 77.042 181.226,76.774 179.321,76.699 177.178 L 76.566 173.400 76.483 177.251 M66.629 175.429 C 66.481 176.015,66.438 176.572,66.532 176.666 C 66.627 176.760,66.824 176.358,66.971 175.771 C 67.119 175.185,67.162 174.628,67.068 174.534 C 66.973 174.440,66.776 174.842,66.629 175.429 M243.400 178.800 C 244.483 179.900,245.460 180.800,245.570 180.800 C 245.680 180.800,244.883 179.900,243.800 178.800 C 242.717 177.700,241.740 176.800,241.630 176.800 C 241.520 176.800,242.317 177.700,243.400 178.800 M268.101 181.000 C 268.105 181.880,268.187 182.193,268.283 181.695 C 268.379 181.198,268.375 180.478,268.275 180.095 C 268.175 179.713,268.096 180.120,268.101 181.000 M209.600 181.600 C 208.830 182.022,208.380 182.366,208.600 182.366 C 208.820 182.366,209.630 182.022,210.400 181.600 C 211.170 181.178,211.620 180.834,211.400 180.834 C 211.180 180.834,210.370 181.178,209.600 181.600 M204.000 184.200 C 203.450 184.514,203.180 184.772,203.400 184.772 C 203.620 184.772,204.250 184.514,204.800 184.200 C 205.350 183.886,205.620 183.628,205.400 183.628 C 205.180 183.628,204.550 183.886,204.000 184.200 M268.524 185.800 C 268.526 187.120,268.601 187.612,268.690 186.893 C 268.779 186.174,268.777 185.094,268.686 184.493 C 268.595 183.892,268.522 184.480,268.524 185.800 M43.309 189.200 C 43.309 190.190,43.387 190.595,43.482 190.100 C 43.578 189.605,43.578 188.795,43.482 188.300 C 43.387 187.805,43.309 188.210,43.309 189.200 M129.300 187.876 C 129.685 187.976,130.315 187.976,130.700 187.876 C 131.085 187.775,130.770 187.693,130.000 187.693 C 129.230 187.693,128.915 187.775,129.300 187.876 M248.901 189.800 C 248.905 190.680,248.987 190.993,249.083 190.495 C 249.179 189.998,249.175 189.278,249.075 188.895 C 248.975 188.513,248.896 188.920,248.901 189.800 M64.093 190.000 C 64.093 190.770,64.175 191.085,64.276 190.700 C 64.376 190.315,64.376 189.685,64.276 189.300 C 64.175 188.915,64.093 189.230,64.093 190.000 M124.395 193.282 C 124.288 194.757,124.345 195.818,124.522 195.640 C 124.699 195.462,124.786 194.255,124.717 192.958 L 124.590 190.600 124.395 193.282 M42.901 193.000 C 42.905 193.880,42.987 194.193,43.083 193.695 C 43.179 193.198,43.175 192.478,43.075 192.095 C 42.975 191.713,42.896 192.120,42.901 193.000 M268.151 196.000 C 268.151 198.530,268.216 199.565,268.296 198.300 C 268.375 197.035,268.375 194.965,268.296 193.700 C 268.216 192.435,268.151 193.470,268.151 196.000 M63.709 194.000 C 63.709 194.990,63.787 195.395,63.882 194.900 C 63.978 194.405,63.978 193.595,63.882 193.100 C 63.787 192.605,63.709 193.010,63.709 194.000 M249.362 199.000 C 249.362 202.520,249.424 203.906,249.498 202.081 C 249.572 200.256,249.572 197.376,249.497 195.681 C 249.422 193.986,249.361 195.480,249.362 199.000 M30.000 193.624 C 30.000 193.857,29.844 193.951,29.653 193.833 C 29.463 193.715,28.968 194.020,28.553 194.509 L 27.800 195.400 28.768 194.600 L 29.736 193.800 29.467 194.600 C 29.202 195.388,29.207 195.388,29.799 194.624 C 30.397 193.850,30.581 193.200,30.200 193.200 C 30.090 193.200,30.000 193.391,30.000 193.624 M23.200 199.400 C 21.561 201.050,20.310 202.400,20.420 202.400 C 20.530 202.400,21.961 201.050,23.600 199.400 C 25.239 197.750,26.490 196.400,26.380 196.400 C 26.270 196.400,24.839 197.750,23.200 199.400 M120.600 197.014 C 119.600 197.496,119.566 197.551,120.400 197.348 C 121.533 197.071,122.807 196.421,122.200 196.430 C 121.980 196.433,121.260 196.696,120.600 197.014 M42.493 198.000 C 42.493 198.770,42.575 199.085,42.676 198.700 C 42.776 198.315,42.776 197.685,42.676 197.300 C 42.575 196.915,42.493 197.230,42.493 198.000 M26.400 199.200 C 25.930 199.860,25.636 200.400,25.746 200.400 C 25.856 200.400,26.330 199.860,26.800 199.200 C 27.270 198.540,27.564 198.000,27.454 198.000 C 27.344 198.000,26.870 198.540,26.400 199.200 M63.365 205.400 C 63.366 209.360,63.426 210.926,63.498 208.880 C 63.571 206.834,63.571 203.594,63.498 201.680 C 63.424 199.766,63.365 201.440,63.365 205.400 M279.781 204.500 L 278.200 206.200 279.900 204.619 C 281.481 203.148,281.784 202.800,281.481 202.800 C 281.416 202.800,280.651 203.565,279.781 204.500 M42.151 208.800 C 42.151 211.330,42.216 212.365,42.296 211.100 C 42.375 209.835,42.375 207.765,42.296 206.500 C 42.216 205.235,42.151 206.270,42.151 208.800 M60.705 212.683 C 61.202 212.779,61.922 212.775,62.305 212.675 C 62.687 212.575,62.280 212.496,61.400 212.501 C 60.520 212.505,60.207 212.587,60.705 212.683 M49.100 213.882 C 49.595 213.978,50.405 213.978,50.900 213.882 C 51.395 213.787,50.990 213.709,50.000 213.709 C 49.010 213.709,48.605 213.787,49.100 213.882 M18.501 215.400 C 18.505 216.280,18.587 216.593,18.683 216.095 C 18.779 215.598,18.775 214.878,18.675 214.495 C 18.575 214.113,18.496 214.520,18.501 215.400 M18.501 219.000 C 18.505 219.880,18.587 220.193,18.683 219.695 C 18.779 219.198,18.775 218.478,18.675 218.095 C 18.575 217.713,18.496 218.120,18.501 219.000 M304.893 224.000 C 304.893 224.770,304.975 225.085,305.076 224.700 C 305.176 224.315,305.176 223.685,305.076 223.300 C 304.975 222.915,304.893 223.230,304.893 224.000 M21.600 226.600 C 22.346 227.370,23.047 228.000,23.157 228.000 C 23.267 228.000,22.746 227.370,22.000 226.600 C 21.254 225.830,20.553 225.200,20.443 225.200 C 20.333 225.200,20.854 225.830,21.600 226.600 M270.900 227.891 C 271.725 227.978,273.075 227.978,273.900 227.891 C 274.725 227.805,274.050 227.734,272.400 227.734 C 270.750 227.734,270.075 227.805,270.900 227.891 M304.901 233.000 C 304.905 233.880,304.987 234.193,305.083 233.695 C 305.179 233.198,305.175 232.478,305.075 232.095 C 304.975 231.713,304.896 232.120,304.901 233.000 M35.700 232.276 C 36.085 232.376,36.715 232.376,37.100 232.276 C 37.485 232.175,37.170 232.093,36.400 232.093 C 35.630 232.093,35.315 232.175,35.700 232.276 M58.100 232.276 C 58.485 232.376,59.115 232.376,59.500 232.276 C 59.885 232.175,59.570 232.093,58.800 232.093 C 58.030 232.093,57.715 232.175,58.100 232.276 M39.700 232.676 C 40.085 232.776,40.715 232.776,41.100 232.676 C 41.485 232.575,41.170 232.493,40.400 232.493 C 39.630 232.493,39.315 232.575,39.700 232.676 M51.900 232.682 C 52.395 232.778,53.205 232.778,53.700 232.682 C 54.195 232.587,53.790 232.509,52.800 232.509 C 51.810 232.509,51.405 232.587,51.900 232.682 M329.905 235.883 C 330.402 235.979,331.122 235.975,331.505 235.875 C 331.887 235.775,331.480 235.696,330.600 235.701 C 329.720 235.705,329.407 235.787,329.905 235.883 M5.634 238.200 C 5.634 238.420,5.978 239.230,6.400 240.000 C 6.822 240.770,7.166 241.220,7.166 241.000 C 7.166 240.780,6.822 239.970,6.400 239.200 C 5.978 238.430,5.634 237.980,5.634 238.200 M229.701 239.800 C 229.705 240.680,229.787 240.993,229.883 240.495 C 229.979 239.998,229.975 239.278,229.875 238.895 C 229.775 238.513,229.696 238.920,229.701 239.800 M7.964 242.733 C 8.180 243.136,8.671 243.721,9.055 244.033 C 9.487 244.384,9.390 244.104,8.801 243.300 C 7.751 241.865,7.357 241.598,7.964 242.733 M11.000 246.400 C 11.859 247.280,12.652 248.000,12.762 248.000 C 12.872 248.000,12.259 247.280,11.400 246.400 C 10.541 245.520,9.748 244.800,9.638 244.800 C 9.528 244.800,10.141 245.520,11.000 246.400 M190.000 253.396 C 190.000 253.670,192.449 254.884,192.632 254.701 C 192.719 254.614,192.162 254.244,191.395 253.878 C 190.628 253.512,190.000 253.295,190.000 253.396 M196.800 256.600 C 197.350 256.914,197.980 257.172,198.200 257.172 C 198.420 257.172,198.150 256.914,197.600 256.600 C 197.050 256.286,196.420 256.028,196.200 256.028 C 195.980 256.028,196.250 256.286,196.800 256.600 M173.000 256.800 C 172.496 257.017,172.422 257.144,172.800 257.144 C 173.130 257.144,173.760 256.989,174.200 256.800 C 174.704 256.583,174.778 256.456,174.400 256.456 C 174.070 256.456,173.440 256.611,173.000 256.800 M81.505 257.083 C 82.002 257.179,82.722 257.175,83.105 257.075 C 83.487 256.975,83.080 256.896,82.200 256.901 C 81.320 256.905,81.007 256.987,81.505 257.083 M77.100 257.482 C 77.595 257.578,78.405 257.578,78.900 257.482 C 79.395 257.387,78.990 257.309,78.000 257.309 C 77.010 257.309,76.605 257.387,77.100 257.482 M42.100 257.887 C 42.705 257.978,43.695 257.978,44.300 257.887 C 44.905 257.795,44.410 257.720,43.200 257.720 C 41.990 257.720,41.495 257.795,42.100 257.887 M72.100 257.876 C 72.485 257.976,73.115 257.976,73.500 257.876 C 73.885 257.775,73.570 257.693,72.800 257.693 C 72.030 257.693,71.715 257.775,72.100 257.876 M47.107 258.290 C 47.826 258.379,48.906 258.377,49.507 258.286 C 50.108 258.195,49.520 258.122,48.200 258.124 C 46.880 258.126,46.388 258.201,47.107 258.290 M51.500 258.282 C 51.995 258.378,52.805 258.378,53.300 258.282 C 53.795 258.187,53.390 258.109,52.400 258.109 C 51.410 258.109,51.005 258.187,51.500 258.282 M59.305 258.287 C 59.914 258.379,60.814 258.377,61.305 258.282 C 61.797 258.187,61.300 258.111,60.200 258.114 C 59.100 258.117,58.697 258.195,59.305 258.287 M65.300 258.276 C 65.685 258.376,66.315 258.376,66.700 258.276 C 67.085 258.175,66.770 258.093,66.000 258.093 C 65.230 258.093,64.915 258.175,65.300 258.276 M166.227 258.759 C 165.801 258.926,165.623 259.167,165.831 259.296 C 166.039 259.424,166.556 259.275,166.981 258.965 C 167.810 258.359,167.479 258.269,166.227 258.759 M234.185 260.500 L 232.200 262.600 234.300 260.615 C 236.251 258.771,236.583 258.400,236.285 258.400 C 236.222 258.400,235.277 259.345,234.185 260.500 M202.000 259.325 C 202.000 259.394,202.585 259.979,203.300 260.625 L 204.600 261.800 203.425 260.500 C 202.330 259.288,202.000 259.016,202.000 259.325 M162.000 260.000 C 161.196 260.257,161.157 260.323,161.800 260.332 C 162.240 260.338,162.960 260.189,163.400 260.000 C 164.419 259.562,163.368 259.562,162.000 260.000 M156.283 261.504 C 155.009 261.832,154.038 262.171,154.125 262.258 C 154.372 262.506,158.555 261.557,158.980 261.157 C 159.450 260.716,159.250 260.741,156.283 261.504 M296.475 262.619 C 295.270 265.100,295.405 265.447,296.646 263.061 C 297.201 261.994,297.587 261.053,297.503 260.970 C 297.419 260.886,296.957 261.628,296.475 262.619 M294.200 267.200 C 293.859 267.860,293.669 268.400,293.779 268.400 C 293.889 268.400,294.259 267.860,294.600 267.200 C 294.941 266.540,295.131 266.000,295.021 266.000 C 294.911 266.000,294.541 266.540,294.200 267.200 M141.200 271.325 C 141.200 271.394,141.785 271.979,142.500 272.625 L 143.800 273.800 142.625 272.500 C 141.530 271.288,141.200 271.016,141.200 271.325 M82.100 275.076 C 82.485 275.176,83.115 275.176,83.500 275.076 C 83.885 274.975,83.570 274.893,82.800 274.893 C 82.030 274.893,81.715 274.975,82.100 275.076 M84.900 275.076 C 85.285 275.176,85.915 275.176,86.300 275.076 C 86.685 274.975,86.370 274.893,85.600 274.893 C 84.830 274.893,84.515 274.975,84.900 275.076 M64.000 277.145 C 64.000 277.334,64.450 277.403,65.000 277.298 C 65.550 277.193,66.000 277.038,66.000 276.953 C 66.000 276.869,65.550 276.800,65.000 276.800 C 64.450 276.800,64.000 276.955,64.000 277.145 M96.394 282.900 C 99.361 285.925,101.836 288.400,101.894 288.400 C 102.181 288.400,101.609 287.806,96.500 282.794 L 91.000 277.400 96.394 282.900 M144.175 278.900 L 143.000 280.200 144.300 279.025 C 145.512 277.930,145.784 277.600,145.475 277.600 C 145.406 277.600,144.821 278.185,144.175 278.900 M189.900 292.229 C 188.405 293.040,188.496 293.378,190.000 292.600 C 190.660 292.259,191.200 291.894,191.200 291.790 C 191.200 291.532,191.157 291.547,189.900 292.229 M274.378 295.100 L 273.000 296.600 274.500 295.222 C 275.896 293.938,276.184 293.600,275.878 293.600 C 275.812 293.600,275.137 294.275,274.378 295.100 M79.400 296.800 C 80.483 297.900,81.460 298.800,81.570 298.800 C 81.680 298.800,80.883 297.900,79.800 296.800 C 78.717 295.700,77.740 294.800,77.630 294.800 C 77.520 294.800,78.317 295.700,79.400 296.800 M270.581 299.300 L 269.000 301.000 270.700 299.419 C 272.281 297.948,272.584 297.600,272.281 297.600 C 272.216 297.600,271.451 298.365,270.581 299.300 M116.200 299.407 C 116.640 299.766,117.360 300.235,117.800 300.451 L 118.600 300.844 117.800 300.193 C 117.360 299.834,116.640 299.365,116.200 299.149 L 115.400 298.756 116.200 299.407 M86.600 304.000 C 87.683 305.100,88.660 306.000,88.770 306.000 C 88.880 306.000,88.083 305.100,87.000 304.000 C 85.917 302.900,84.940 302.000,84.830 302.000 C 84.720 302.000,85.517 302.900,86.600 304.000 M265.600 303.800 C 264.628 304.790,263.923 305.600,264.033 305.600 C 264.143 305.600,265.028 304.790,266.000 303.800 C 266.972 302.810,267.677 302.000,267.567 302.000 C 267.457 302.000,266.572 302.810,265.600 303.800 M130.800 307.400 C 131.350 307.714,131.980 307.972,132.200 307.972 C 132.420 307.972,132.150 307.714,131.600 307.400 C 131.050 307.086,130.420 306.828,130.200 306.828 C 129.980 306.828,130.250 307.086,130.800 307.400 M172.575 314.100 L 171.400 315.400 172.700 314.225 C 173.912 313.130,174.184 312.800,173.875 312.800 C 173.806 312.800,173.221 313.385,172.575 314.100 M120.800 327.200 C 121.570 327.622,122.380 327.966,122.600 327.966 C 122.820 327.966,122.370 327.622,121.600 327.200 C 120.830 326.778,120.020 326.434,119.800 326.434 C 119.580 326.434,120.030 326.778,120.800 327.200 M221.800 330.214 C 220.800 330.696,220.766 330.751,221.600 330.548 C 222.733 330.271,224.007 329.621,223.400 329.630 C 223.180 329.633,222.460 329.896,221.800 330.214 M156.100 337.476 C 156.485 337.576,157.115 337.576,157.500 337.476 C 157.885 337.375,157.570 337.293,156.800 337.293 C 156.030 337.293,155.715 337.375,156.100 337.476 M190.705 337.483 C 191.202 337.579,191.922 337.575,192.305 337.475 C 192.687 337.375,192.280 337.296,191.400 337.301 C 190.520 337.305,190.207 337.387,190.705 337.483 M159.300 337.876 C 159.685 337.976,160.315 337.976,160.700 337.876 C 161.085 337.775,160.770 337.693,160.000 337.693 C 159.230 337.693,158.915 337.775,159.300 337.876 M187.300 337.876 C 187.685 337.976,188.315 337.976,188.700 337.876 C 189.085 337.775,188.770 337.693,188.000 337.693 C 187.230 337.693,186.915 337.775,187.300 337.876 M164.100 338.287 C 164.705 338.378,165.695 338.378,166.300 338.287 C 166.905 338.195,166.410 338.120,165.200 338.120 C 163.990 338.120,163.495 338.195,164.100 338.287 M182.105 338.287 C 182.714 338.379,183.614 338.377,184.105 338.282 C 184.597 338.187,184.100 338.111,183.000 338.114 C 181.900 338.117,181.497 338.195,182.105 338.287 M173.100 338.689 C 173.815 338.778,174.985 338.778,175.700 338.689 C 176.415 338.601,175.830 338.528,174.400 338.528 C 172.970 338.528,172.385 338.601,173.100 338.689 " stroke="none" fill="#6bb4d8" fill-rule="evenodd"></path><path id="path4" d="M159.600 50.767 C 159.600 53.186,159.889 54.002,160.743 53.994 C 161.312 53.989,161.320 53.937,160.800 53.608 C 160.115 53.175,159.966 50.702,160.607 50.400 C 160.866 50.278,160.752 49.927,160.315 49.500 C 159.630 48.830,159.600 48.883,159.600 50.767 M138.151 49.610 C 137.685 49.789,137.175 50.444,137.020 51.064 C 136.864 51.684,136.537 52.315,136.294 52.466 C 135.699 52.833,136.662 54.000,137.560 54.000 C 139.040 54.000,139.972 52.864,139.772 51.302 C 139.540 49.494,139.247 49.188,138.151 49.610 M346.489 49.536 C 345.520 50.152,345.352 54.000,346.295 54.000 C 347.667 54.000,348.244 52.726,348.062 50.100 C 347.998 49.178,347.395 48.962,346.489 49.536 M43.300 49.915 C 42.503 50.040,42.408 50.269,42.470 51.928 L 42.540 53.800 42.693 52.100 C 42.863 50.214,44.003 49.729,45.043 51.100 C 45.538 51.752,45.575 51.741,45.587 50.947 C 45.601 50.038,44.806 49.680,43.300 49.915 M59.068 50.100 C 58.475 50.533,58.583 50.600,59.870 50.600 C 61.113 50.600,61.402 50.763,61.638 51.600 C 61.898 52.521,61.923 52.530,61.960 51.723 C 62.026 50.262,60.228 49.253,59.068 50.100 M155.800 50.000 C 155.197 50.259,155.442 50.344,156.800 50.344 C 158.158 50.344,158.403 50.259,157.800 50.000 C 157.360 49.811,156.910 49.656,156.800 49.656 C 156.690 49.656,156.240 49.811,155.800 50.000 M251.700 49.915 C 250.903 50.040,250.808 50.269,250.870 51.928 L 250.940 53.800 251.093 52.100 C 251.249 50.364,253.167 49.493,253.735 50.900 C 253.863 51.217,253.948 51.161,253.968 50.747 C 254.003 50.030,253.096 49.697,251.700 49.915 M267.810 49.984 C 267.657 50.231,267.973 50.400,268.589 50.400 C 270.548 50.400,270.763 52.852,268.866 53.547 C 268.174 53.800,268.046 53.948,268.500 53.968 C 269.308 54.005,270.800 52.648,270.800 51.876 C 270.800 50.596,268.379 49.064,267.810 49.984 M351.100 49.876 C 350.715 49.976,350.400 50.209,350.400 50.392 C 350.400 50.575,350.760 50.631,351.200 50.516 C 351.640 50.401,352.000 50.148,352.000 49.953 C 352.000 49.759,351.955 49.621,351.900 49.646 C 351.845 49.672,351.485 49.775,351.100 49.876 M364.600 50.000 C 364.453 50.238,364.890 50.389,365.676 50.372 C 366.779 50.348,366.867 50.286,366.200 50.000 C 365.115 49.534,364.888 49.534,364.600 50.000 M368.400 50.000 C 368.400 50.220,368.805 50.397,369.300 50.394 C 370.028 50.389,370.085 50.314,369.600 50.000 C 368.824 49.499,368.400 49.499,368.400 50.000 M371.900 49.903 C 370.702 50.169,371.134 50.671,372.400 50.485 C 373.060 50.388,373.600 50.259,373.600 50.197 C 373.600 49.941,372.549 49.759,371.900 49.903 M39.400 51.600 L 38.200 51.905 39.476 51.953 C 40.178 51.979,40.864 51.820,41.000 51.600 C 41.274 51.157,41.140 51.157,39.400 51.600 M352.000 51.600 L 350.600 51.895 352.076 51.947 C 352.888 51.976,353.664 51.820,353.800 51.600 C 354.068 51.166,354.061 51.166,352.000 51.600 M257.335 52.326 C 257.158 53.003,256.977 53.113,256.583 52.786 C 256.178 52.450,256.111 52.536,256.278 53.177 C 256.396 53.630,256.623 54.000,256.782 54.000 C 257.187 54.000,258.081 51.947,257.799 51.666 C 257.672 51.539,257.463 51.836,257.335 52.326 M350.006 52.286 C 350.003 52.773,350.348 53.358,350.774 53.586 C 351.686 54.074,353.200 54.136,353.200 53.684 C 353.200 53.511,352.713 53.376,352.118 53.384 C 351.359 53.395,350.884 53.102,350.524 52.400 C 350.029 51.433,350.012 51.430,350.006 52.286 M155.200 52.757 C 155.200 53.489,155.966 54.027,156.933 53.975 C 157.190 53.961,156.976 53.780,156.458 53.572 C 155.855 53.331,155.599 52.980,155.746 52.597 C 155.872 52.269,155.801 52.000,155.587 52.000 C 155.374 52.000,155.200 52.341,155.200 52.757 M39.200 53.600 L 38.200 53.920 39.276 53.960 C 39.868 53.982,40.464 53.820,40.600 53.600 C 40.881 53.145,40.620 53.145,39.200 53.600 M59.170 53.752 C 59.679 53.979,60.321 53.979,60.830 53.752 C 61.504 53.451,61.348 53.382,60.000 53.382 C 58.652 53.382,58.496 53.451,59.170 53.752 M174.316 69.497 C 175.699 69.575,177.859 69.574,179.116 69.495 C 180.372 69.416,179.240 69.352,176.600 69.353 C 173.960 69.353,172.932 69.418,174.316 69.497 M168.500 69.876 C 168.885 69.976,169.515 69.976,169.900 69.876 C 170.285 69.775,169.970 69.693,169.200 69.693 C 168.430 69.693,168.115 69.775,168.500 69.876 M183.700 69.876 C 184.085 69.976,184.715 69.976,185.100 69.876 C 185.485 69.775,185.170 69.693,184.400 69.693 C 183.630 69.693,183.315 69.775,183.700 69.876 M158.500 70.676 C 158.885 70.776,159.515 70.776,159.900 70.676 C 160.285 70.575,159.970 70.493,159.200 70.493 C 158.430 70.493,158.115 70.575,158.500 70.676 M112.300 84.629 C 110.805 85.440,110.896 85.778,112.400 85.000 C 113.060 84.659,113.600 84.294,113.600 84.190 C 113.600 83.932,113.557 83.947,112.300 84.629 M265.665 86.665 L 263.400 88.930 265.800 86.789 C 267.120 85.611,268.275 84.592,268.367 84.524 C 268.458 84.456,268.398 84.400,268.231 84.400 C 268.065 84.400,266.910 85.419,265.665 86.665 M243.301 91.000 C 243.305 91.880,243.387 92.193,243.483 91.695 C 243.579 91.198,243.575 90.478,243.475 90.095 C 243.375 89.713,243.296 90.120,243.301 91.000 M177.913 92.295 C 179.076 92.376,180.876 92.376,181.913 92.293 C 182.951 92.211,182.000 92.145,179.800 92.146 C 177.600 92.147,176.751 92.214,177.913 92.295 M192.400 93.353 C 192.400 93.438,192.850 93.593,193.400 93.698 C 193.950 93.803,194.400 93.734,194.400 93.545 C 194.400 93.355,193.950 93.200,193.400 93.200 C 192.850 93.200,192.400 93.269,192.400 93.353 M169.785 97.700 L 167.800 99.800 169.900 97.815 C 171.055 96.723,172.000 95.778,172.000 95.715 C 172.000 95.417,171.629 95.749,169.785 97.700 M92.887 97.100 C 91.930 98.035,91.914 98.081,92.781 97.406 C 94.488 96.076,94.569 96.000,94.286 96.000 C 94.136 96.000,93.506 96.495,92.887 97.100 M267.200 98.000 C 267.670 98.660,268.144 99.200,268.254 99.200 C 268.364 99.200,268.070 98.660,267.600 98.000 C 267.130 97.340,266.656 96.800,266.546 96.800 C 266.436 96.800,266.730 97.340,267.200 98.000 M245.234 99.400 C 245.234 99.620,245.578 100.430,246.000 101.200 C 246.422 101.970,246.766 102.420,246.766 102.200 C 246.766 101.980,246.422 101.170,246.000 100.400 C 245.578 99.630,245.234 99.180,245.234 99.400 M87.775 101.300 L 86.600 102.600 87.900 101.425 C 89.112 100.330,89.384 100.000,89.075 100.000 C 89.006 100.000,88.421 100.585,87.775 101.300 M164.985 102.900 L 163.000 105.000 165.100 103.015 C 167.051 101.171,167.383 100.800,167.085 100.800 C 167.022 100.800,166.077 101.745,164.985 102.900 M80.393 108.300 L 76.200 112.600 80.500 108.407 C 82.865 106.101,84.800 104.166,84.800 104.107 C 84.800 103.818,84.287 104.306,80.393 108.300 M273.996 107.194 C 274.690 108.071,275.467 108.918,275.723 109.076 C 275.978 109.234,275.493 108.516,274.645 107.481 C 273.797 106.447,273.020 105.600,272.918 105.600 C 272.816 105.600,273.301 106.318,273.996 107.194 M74.378 114.700 L 73.000 116.200 74.500 114.822 C 75.896 113.538,76.184 113.200,75.878 113.200 C 75.812 113.200,75.137 113.875,74.378 114.700 M255.200 114.925 C 255.200 114.994,255.785 115.579,256.500 116.225 L 257.800 117.400 256.625 116.100 C 255.530 114.888,255.200 114.616,255.200 114.925 M260.800 121.000 C 261.546 121.770,262.247 122.400,262.357 122.400 C 262.467 122.400,261.946 121.770,261.200 121.000 C 260.454 120.230,259.753 119.600,259.643 119.600 C 259.533 119.600,260.054 120.230,260.800 121.000 M69.544 120.700 C 68.393 122.089,67.906 122.800,68.104 122.800 C 68.214 122.800,68.786 122.170,69.373 121.400 C 70.463 119.971,70.595 119.432,69.544 120.700 M395.593 122.281 C 395.487 123.425,395.547 124.215,395.726 124.035 C 395.905 123.856,395.991 122.919,395.918 121.954 L 395.785 120.200 395.593 122.281 M343.910 122.401 C 344.630 122.841,345.437 123.200,345.704 123.200 C 345.970 123.200,345.516 122.840,344.696 122.400 C 342.765 121.365,342.212 121.366,343.910 122.401 M208.893 127.200 C 208.893 127.970,208.975 128.285,209.076 127.900 C 209.176 127.515,209.176 126.885,209.076 126.500 C 208.975 126.115,208.893 126.430,208.893 127.200 M392.800 128.400 C 392.330 129.060,392.036 129.600,392.146 129.600 C 392.256 129.600,392.730 129.060,393.200 128.400 C 393.670 127.740,393.964 127.200,393.854 127.200 C 393.744 127.200,393.270 127.740,392.800 128.400 M61.400 132.800 C 61.059 133.460,60.869 134.000,60.979 134.000 C 61.089 134.000,61.459 133.460,61.800 132.800 C 62.141 132.140,62.331 131.600,62.221 131.600 C 62.111 131.600,61.741 132.140,61.400 132.800 M175.800 135.600 C 175.459 136.260,175.269 136.800,175.379 136.800 C 175.489 136.800,175.859 136.260,176.200 135.600 C 176.541 134.940,176.731 134.400,176.621 134.400 C 176.511 134.400,176.141 134.940,175.800 135.600 M228.180 141.161 C 227.971 141.360,227.440 141.609,227.000 141.715 C 226.241 141.897,226.244 141.910,227.051 141.954 C 227.519 141.979,228.126 141.730,228.400 141.400 C 228.943 140.746,228.791 140.581,228.180 141.161 M253.300 147.487 C 253.905 147.578,254.895 147.578,255.500 147.487 C 256.105 147.395,255.610 147.320,254.400 147.320 C 253.190 147.320,252.695 147.395,253.300 147.487 M366.800 148.431 C 365.735 149.037,365.640 149.166,366.400 148.971 C 366.950 148.830,367.664 148.463,367.986 148.157 C 368.772 147.409,368.473 147.478,366.800 148.431 M51.386 153.627 C 51.037 154.302,50.807 155.014,50.876 155.209 C 50.944 155.404,51.302 154.851,51.670 153.982 C 52.465 152.106,52.287 151.884,51.386 153.627 M357.590 153.826 C 357.100 155.114,357.097 155.075,357.728 155.317 C 358.105 155.462,358.249 155.130,358.228 154.161 C 358.194 152.531,358.101 152.482,357.590 153.826 M33.284 154.590 C 32.798 155.149,32.400 155.885,32.400 156.227 C 32.400 156.568,32.220 156.736,32.000 156.600 C 31.780 156.464,31.600 156.637,31.600 156.985 C 31.600 158.106,33.410 158.617,34.605 157.833 C 35.492 157.252,35.626 156.909,35.522 155.480 C 35.374 153.455,34.554 153.129,33.284 154.590 M242.132 153.910 C 241.874 154.074,241.536 154.716,241.380 155.336 C 241.224 155.957,240.850 156.559,240.549 156.675 C 239.678 157.009,239.904 157.463,241.210 158.004 C 243.258 158.853,244.467 157.184,243.748 154.500 C 243.501 153.579,242.962 153.382,242.132 153.910 M374.253 155.400 C 374.558 156.812,374.650 156.966,374.925 156.522 C 375.038 156.339,374.874 155.742,374.562 155.195 L 373.993 154.200 374.253 155.400 M49.232 155.539 C 48.579 156.760,48.714 157.100,49.441 156.063 C 49.793 155.560,49.988 155.054,49.873 154.940 C 49.759 154.825,49.470 155.095,49.232 155.539 M359.600 155.196 C 359.600 155.927,360.791 158.000,361.210 158.000 C 361.820 158.000,361.667 157.311,361.000 157.055 C 360.670 156.929,360.400 156.470,360.400 156.036 C 360.400 155.602,360.220 155.136,360.000 155.000 C 359.780 154.864,359.600 154.952,359.600 155.196 M37.246 156.000 C 37.227 156.550,37.387 157.270,37.600 157.600 C 38.094 158.364,38.094 157.542,37.600 156.000 L 37.280 155.000 37.246 156.000 M245.822 155.888 C 245.676 156.266,245.688 156.446,245.846 156.287 C 246.005 156.128,246.493 156.314,246.929 156.699 C 247.716 157.393,247.717 157.390,247.016 156.300 C 246.182 155.004,246.163 154.998,245.822 155.888 M246.032 157.109 C 246.014 157.388,246.495 157.826,247.100 158.081 C 247.705 158.337,249.190 159.458,250.400 160.573 L 252.600 162.600 250.213 160.100 C 248.899 158.725,247.519 157.600,247.146 157.600 C 246.772 157.600,246.376 157.375,246.265 157.100 C 246.106 156.706,246.056 156.708,246.032 157.109 M75.301 159.800 C 75.305 160.680,75.387 160.993,75.483 160.495 C 75.579 159.998,75.575 159.278,75.475 158.895 C 75.375 158.513,75.296 158.920,75.301 159.800 M170.975 164.100 L 169.800 165.400 171.100 164.225 C 171.815 163.579,172.400 162.994,172.400 162.925 C 172.400 162.616,172.070 162.888,170.975 164.100 M253.344 163.109 C 253.660 163.621,256.000 165.353,256.000 165.075 C 256.000 164.976,255.339 164.391,254.532 163.775 C 253.724 163.159,253.189 162.859,253.344 163.109 M75.701 169.000 C 75.705 169.880,75.787 170.193,75.883 169.695 C 75.979 169.198,75.975 168.478,75.875 168.095 C 75.775 167.713,75.696 168.120,75.701 169.000 M232.662 169.900 C 232.560 170.065,232.982 170.200,233.600 170.200 C 234.218 170.200,234.640 170.065,234.538 169.900 C 234.436 169.735,234.014 169.600,233.600 169.600 C 233.186 169.600,232.764 169.735,232.662 169.900 M67.829 172.229 C 67.681 172.815,67.638 173.372,67.732 173.466 C 67.827 173.560,68.024 173.158,68.171 172.571 C 68.319 171.985,68.362 171.428,68.268 171.334 C 68.173 171.240,67.976 171.642,67.829 172.229 M76.061 177.400 C 76.034 179.380,76.145 181.209,76.307 181.464 C 76.470 181.719,76.550 180.459,76.485 178.664 C 76.312 173.872,76.116 173.287,76.061 177.400 M266.330 175.982 C 266.698 176.851,267.056 177.404,267.124 177.209 C 267.250 176.849,266.113 174.400,265.819 174.400 C 265.731 174.400,265.961 175.112,266.330 175.982 M241.200 176.125 C 241.200 176.194,241.785 176.779,242.500 177.425 L 243.800 178.600 242.625 177.300 C 241.530 176.088,241.200 175.816,241.200 176.125 M352.893 180.800 C 352.893 181.570,352.975 181.885,353.076 181.500 C 353.176 181.115,353.176 180.485,353.076 180.100 C 352.975 179.715,352.893 180.030,352.893 180.800 M268.120 186.000 C 268.120 187.210,268.195 187.705,268.287 187.100 C 268.378 186.495,268.378 185.505,268.287 184.900 C 268.195 184.295,268.120 184.790,268.120 186.000 M127.100 188.282 C 127.595 188.378,128.405 188.378,128.900 188.282 C 129.395 188.187,128.990 188.109,128.000 188.109 C 127.010 188.109,126.605 188.187,127.100 188.282 M319.693 191.200 C 319.693 191.970,319.775 192.285,319.876 191.900 C 319.976 191.515,319.976 190.885,319.876 190.500 C 319.775 190.115,319.693 190.430,319.693 191.200 M185.101 191.965 C 184.276 192.350,183.466 192.804,183.301 192.975 C 182.970 193.315,185.576 192.286,186.696 191.634 C 187.828 190.975,186.735 191.202,185.101 191.965 M30.195 193.192 C 30.328 193.407,30.239 193.992,29.996 194.492 C 29.574 195.362,29.582 195.368,30.178 194.624 C 30.894 193.730,30.995 192.800,30.376 192.800 C 30.143 192.800,30.062 192.976,30.195 193.192 M285.429 193.829 C 285.281 194.415,285.238 194.972,285.332 195.066 C 285.427 195.160,285.624 194.758,285.771 194.171 C 285.919 193.585,285.962 193.028,285.868 192.934 C 285.773 192.840,285.576 193.242,285.429 193.829 M22.391 199.900 L 19.000 203.400 22.500 200.009 C 25.751 196.859,26.182 196.400,25.891 196.400 C 25.831 196.400,24.256 197.975,22.391 199.900 M63.599 205.481 C 63.490 209.485,63.539 212.622,63.710 212.451 C 63.880 212.280,63.970 209.004,63.909 205.170 L 63.798 198.200 63.599 205.481 M42.109 200.400 C 42.109 201.390,42.187 201.795,42.282 201.300 C 42.378 200.805,42.378 199.995,42.282 199.500 C 42.187 199.005,42.109 199.410,42.109 200.400 M249.731 203.000 C 249.733 204.540,249.805 205.121,249.892 204.291 C 249.979 203.461,249.977 202.201,249.889 201.491 C 249.800 200.781,249.729 201.460,249.731 203.000 M41.737 206.600 C 41.739 208.360,41.809 209.030,41.893 208.089 C 41.978 207.149,41.977 205.709,41.891 204.889 C 41.805 204.070,41.736 204.840,41.737 206.600 M20.600 208.800 C 20.259 209.460,20.069 210.000,20.179 210.000 C 20.289 210.000,20.659 209.460,21.000 208.800 C 21.341 208.140,21.531 207.600,21.421 207.600 C 21.311 207.600,20.941 208.140,20.600 208.800 M11.702 213.300 C 11.136 214.015,10.340 215.600,10.546 215.600 C 10.642 215.600,11.093 214.970,11.547 214.200 C 12.373 212.801,12.449 212.357,11.702 213.300 M53.300 213.876 C 53.685 213.976,54.315 213.976,54.700 213.876 C 55.085 213.775,54.770 213.693,54.000 213.693 C 53.230 213.693,52.915 213.775,53.300 213.876 M49.705 214.287 C 50.314 214.379,51.214 214.377,51.705 214.282 C 52.197 214.187,51.700 214.111,50.600 214.114 C 49.500 214.117,49.097 214.195,49.705 214.287 M125.200 215.000 C 123.894 215.747,124.351 215.755,126.054 215.016 C 126.794 214.694,127.130 214.431,126.800 214.430 C 126.470 214.429,125.750 214.686,125.200 215.000 M293.375 220.100 L 292.200 221.400 293.500 220.225 C 294.712 219.130,294.984 218.800,294.675 218.800 C 294.606 218.800,294.021 219.385,293.375 220.100 M218.000 221.400 C 217.450 221.714,217.180 221.972,217.400 221.972 C 217.620 221.972,218.250 221.714,218.800 221.400 C 219.350 221.086,219.620 220.828,219.400 220.828 C 219.180 220.828,218.550 221.086,218.000 221.400 M212.000 223.800 C 211.450 224.114,211.180 224.372,211.400 224.372 C 211.620 224.372,212.250 224.114,212.800 223.800 C 213.350 223.486,213.620 223.228,213.400 223.228 C 213.180 223.228,212.550 223.486,212.000 223.800 M256.176 225.022 C 255.412 225.634,255.413 225.638,256.200 225.276 C 256.640 225.074,257.270 224.808,257.600 224.686 C 258.118 224.493,258.115 224.459,257.576 224.432 C 257.234 224.414,256.604 224.680,256.176 225.022 M305.354 229.200 C 305.354 231.950,305.418 233.075,305.496 231.700 C 305.574 230.325,305.574 228.075,305.496 226.700 C 305.418 225.325,305.354 226.450,305.354 229.200 M21.400 225.966 C 22.178 226.861,24.400 228.598,24.400 228.312 C 24.400 228.234,23.545 227.467,22.500 226.608 C 21.455 225.749,20.960 225.460,21.400 225.966 M270.711 227.493 C 271.651 227.578,273.091 227.577,273.911 227.491 C 274.730 227.405,273.960 227.336,272.200 227.337 C 270.440 227.339,269.770 227.409,270.711 227.493 M343.029 229.029 C 342.881 229.615,342.838 230.172,342.932 230.266 C 343.027 230.360,343.224 229.958,343.371 229.371 C 343.519 228.785,343.562 228.228,343.468 228.134 C 343.373 228.040,343.176 228.442,343.029 229.029 M39.105 232.283 C 39.602 232.379,40.322 232.375,40.705 232.275 C 41.087 232.175,40.680 232.096,39.800 232.101 C 38.920 232.105,38.607 232.187,39.105 232.283 M51.907 232.290 C 52.626 232.379,53.706 232.377,54.307 232.286 C 54.908 232.195,54.320 232.122,53.000 232.124 C 51.680 232.126,51.188 232.201,51.907 232.290 M44.905 232.687 C 45.514 232.779,46.414 232.777,46.905 232.682 C 47.397 232.587,46.900 232.511,45.800 232.514 C 44.700 232.517,44.297 232.595,44.905 232.687 M6.600 241.200 C 6.941 241.860,7.311 242.400,7.421 242.400 C 7.531 242.400,7.341 241.860,7.000 241.200 C 6.659 240.540,6.289 240.000,6.179 240.000 C 6.069 240.000,6.259 240.540,6.600 241.200 M10.000 245.725 C 10.000 245.794,10.585 246.379,11.300 247.025 L 12.600 248.200 11.425 246.900 C 10.330 245.688,10.000 245.416,10.000 245.725 M238.622 252.025 C 239.490 253.029,240.281 253.788,240.380 253.712 C 240.480 253.635,239.770 252.814,238.803 251.886 L 237.044 250.200 238.622 252.025 M185.400 252.586 C 183.855 253.293,184.574 253.303,186.400 252.600 C 187.170 252.303,187.530 252.055,187.200 252.048 C 186.870 252.042,186.060 252.283,185.400 252.586 M188.400 252.179 C 188.400 252.289,188.940 252.659,189.600 253.000 C 190.260 253.341,190.800 253.531,190.800 253.421 C 190.800 253.311,190.260 252.941,189.600 252.600 C 188.940 252.259,188.400 252.069,188.400 252.179 M89.505 256.683 C 90.002 256.779,90.722 256.775,91.105 256.675 C 91.487 256.575,91.080 256.496,90.200 256.501 C 89.320 256.505,89.007 256.587,89.505 256.683 M159.600 258.800 C 159.600 259.956,159.433 260.400,159.000 260.400 C 158.670 260.400,158.400 260.220,158.400 260.000 C 158.400 259.780,158.201 259.600,157.957 259.600 C 157.714 259.600,157.618 259.870,157.745 260.200 C 157.871 260.530,157.771 260.800,157.521 260.800 C 157.271 260.800,157.147 260.881,157.246 260.980 C 157.345 261.078,158.196 260.964,159.138 260.725 C 160.346 260.418,160.725 260.165,160.425 259.865 C 159.857 259.297,159.889 258.887,160.511 258.729 C 160.881 258.636,160.826 258.406,160.311 257.900 C 159.631 257.231,159.600 257.271,159.600 258.800 M234.000 260.200 C 232.361 261.850,231.110 263.200,231.220 263.200 C 231.330 263.200,232.761 261.850,234.400 260.200 C 236.039 258.550,237.290 257.200,237.180 257.200 C 237.070 257.200,235.639 258.550,234.000 260.200 M38.533 258.194 C 38.533 258.643,38.663 258.680,39.067 258.345 C 39.404 258.065,39.600 258.052,39.600 258.308 C 39.600 258.532,39.867 258.817,40.194 258.942 C 40.691 259.133,40.708 259.042,40.298 258.385 C 39.723 257.464,38.533 257.335,38.533 258.194 M76.505 257.887 C 77.114 257.979,78.014 257.977,78.505 257.882 C 78.997 257.787,78.500 257.711,77.400 257.714 C 76.300 257.717,75.897 257.795,76.505 257.887 M138.151 258.010 C 137.685 258.189,137.175 258.844,137.020 259.464 C 136.864 260.084,136.537 260.715,136.294 260.866 C 135.699 261.233,136.662 262.400,137.560 262.400 C 138.980 262.400,139.864 261.328,139.741 259.758 C 139.598 257.948,139.265 257.582,138.151 258.010 M346.489 257.936 C 345.520 258.552,345.352 262.400,346.295 262.400 C 347.667 262.400,348.244 261.126,348.062 258.500 C 347.998 257.578,347.395 257.362,346.489 257.936 M42.197 259.980 C 42.198 261.090,42.335 261.998,42.500 261.999 C 42.665 261.999,42.800 261.280,42.800 260.400 C 42.800 258.606,43.995 258.128,45.051 259.500 C 45.542 260.138,45.578 260.111,45.457 259.200 C 45.344 258.351,45.088 258.182,43.759 258.082 L 42.193 257.963 42.197 259.980 M155.600 258.400 C 155.164 258.682,155.492 258.788,156.800 258.788 C 158.108 258.788,158.436 258.682,158.000 258.400 C 157.670 258.187,157.130 258.012,156.800 258.012 C 156.470 258.012,155.930 258.187,155.600 258.400 M364.600 258.400 C 364.454 258.636,364.895 258.797,365.676 258.794 C 366.678 258.789,366.854 258.693,366.400 258.400 C 365.622 257.897,364.911 257.897,364.600 258.400 M371.900 258.276 C 370.724 258.583,371.122 259.073,372.396 258.886 C 373.054 258.789,373.493 258.551,373.372 258.355 C 373.143 257.983,373.040 257.978,371.900 258.276 M46.229 258.700 C 46.428 258.865,46.703 259.150,46.840 259.334 C 46.977 259.517,47.198 259.382,47.332 259.034 C 47.507 258.577,47.336 258.400,46.721 258.400 C 46.251 258.400,46.030 258.535,46.229 258.700 M51.505 258.683 C 52.002 258.779,52.722 258.775,53.105 258.675 C 53.487 258.575,53.080 258.496,52.200 258.501 C 51.320 258.505,51.007 258.587,51.505 258.683 M55.791 258.814 C 55.719 258.932,56.813 259.009,58.223 258.987 C 61.088 258.940,61.422 259.056,61.707 260.200 C 61.863 260.824,61.917 260.764,61.954 259.923 C 61.995 258.955,62.173 258.831,63.700 258.695 C 64.635 258.612,63.268 258.557,60.662 258.572 C 58.056 258.588,55.864 258.696,55.791 258.814 M202.000 258.925 C 202.000 258.994,202.585 259.579,203.300 260.225 L 204.600 261.400 203.425 260.100 C 202.330 258.888,202.000 258.616,202.000 258.925 M298.065 259.817 C 297.395 261.288,297.523 261.602,298.247 260.265 C 298.586 259.640,298.788 259.054,298.696 258.963 C 298.605 258.871,298.321 259.256,298.065 259.817 M161.600 259.606 C 161.178 259.882,161.415 259.923,162.400 259.742 C 164.125 259.425,164.451 259.198,163.167 259.206 C 162.635 259.209,161.930 259.389,161.600 259.606 M39.600 260.000 L 38.200 260.295 39.700 260.347 C 40.525 260.376,41.200 260.220,41.200 260.000 C 41.200 259.780,41.155 259.624,41.100 259.653 C 41.045 259.682,40.370 259.838,39.600 260.000 M352.000 260.000 L 350.600 260.295 352.076 260.347 C 352.888 260.376,353.664 260.220,353.800 260.000 C 354.068 259.566,354.061 259.566,352.000 260.000 M365.600 260.000 L 364.600 260.320 365.700 260.360 C 366.305 260.382,366.800 260.220,366.800 260.000 C 366.800 259.780,366.755 259.618,366.700 259.640 C 366.645 259.662,366.150 259.824,365.600 260.000 M154.958 261.078 C 154.223 261.762,154.068 262.055,154.533 261.878 C 154.936 261.725,155.566 261.597,155.933 261.594 C 156.501 261.589,156.513 261.532,156.010 261.214 C 155.528 260.910,155.601 260.769,156.410 260.446 C 157.001 260.210,157.142 260.040,156.758 260.025 C 156.406 260.011,155.596 260.485,154.958 261.078 M350.006 260.686 C 350.003 261.173,350.348 261.758,350.774 261.986 C 351.686 262.474,353.200 262.536,353.200 262.084 C 353.200 261.911,352.713 261.776,352.118 261.784 C 351.359 261.795,350.884 261.502,350.524 260.800 C 350.029 259.833,350.012 259.830,350.006 260.686 M39.400 262.000 C 38.629 262.331,38.631 262.345,39.476 262.372 C 39.958 262.387,40.464 262.220,40.600 262.000 C 40.892 261.527,40.501 261.527,39.400 262.000 M59.170 262.152 C 59.679 262.379,60.321 262.379,60.830 262.152 C 61.504 261.851,61.348 261.782,60.000 261.782 C 58.652 261.782,58.496 261.851,59.170 262.152 M141.000 265.200 C 140.496 265.417,140.422 265.544,140.800 265.544 C 141.130 265.544,141.760 265.389,142.200 265.200 C 142.704 264.983,142.778 264.856,142.400 264.856 C 142.070 264.856,141.440 265.011,141.000 265.200 M82.691 274.689 C 83.401 274.777,84.661 274.779,85.491 274.692 C 86.321 274.605,85.740 274.533,84.200 274.531 C 82.660 274.529,81.981 274.600,82.691 274.689 M200.181 276.837 C 199.829 277.518,199.612 278.145,199.699 278.232 C 199.786 278.319,200.156 277.762,200.522 276.995 C 201.344 275.270,201.059 275.138,200.181 276.837 M288.550 277.500 C 287.367 279.125,287.002 279.952,287.977 278.800 C 288.878 277.734,289.719 276.400,289.489 276.400 C 289.413 276.400,288.990 276.895,288.550 277.500 M143.775 278.900 L 142.600 280.200 143.900 279.025 C 145.112 277.930,145.384 277.600,145.075 277.600 C 145.006 277.600,144.421 278.185,143.775 278.900 M94.000 280.200 C 94.746 280.970,95.447 281.600,95.557 281.600 C 95.667 281.600,95.146 280.970,94.400 280.200 C 93.654 279.430,92.953 278.800,92.843 278.800 C 92.733 278.800,93.254 279.430,94.000 280.200 M234.468 280.600 C 234.462 281.040,234.611 281.760,234.800 282.200 C 235.238 283.219,235.238 282.168,234.800 280.800 C 234.543 279.996,234.477 279.957,234.468 280.600 M141.588 282.022 C 141.346 282.474,141.207 283.022,141.280 283.239 C 141.352 283.457,141.618 283.087,141.871 282.417 C 142.397 281.025,142.239 280.805,141.588 282.022 M96.000 281.848 C 96.000 282.058,96.945 283.123,98.100 284.215 L 100.200 286.200 98.200 284.008 C 97.100 282.803,96.155 281.738,96.100 281.642 C 96.045 281.545,96.000 281.638,96.000 281.848 M71.596 288.394 C 72.290 289.271,73.067 290.118,73.323 290.276 C 73.578 290.434,73.093 289.716,72.245 288.681 C 71.397 287.647,70.620 286.800,70.518 286.800 C 70.416 286.800,70.901 287.518,71.596 288.394 M187.500 293.829 C 186.005 294.640,186.096 294.978,187.600 294.200 C 188.260 293.859,188.800 293.494,188.800 293.390 C 188.800 293.132,188.757 293.147,187.500 293.829 M77.200 294.925 C 77.200 294.994,77.785 295.579,78.500 296.225 L 79.800 297.400 78.625 296.100 C 77.530 294.888,77.200 294.616,77.200 294.925 M270.991 299.300 L 267.800 302.600 271.100 299.409 C 274.165 296.446,274.582 296.000,274.291 296.000 C 274.230 296.000,272.745 297.485,270.991 299.300 M233.300 300.046 C 231.495 301.202,231.663 301.468,233.500 300.363 C 235.360 299.245,235.418 299.198,234.967 299.207 C 234.765 299.210,234.015 299.588,233.300 300.046 M87.400 305.200 C 88.483 306.300,89.460 307.200,89.570 307.200 C 89.680 307.200,88.883 306.300,87.800 305.200 C 86.717 304.100,85.740 303.200,85.630 303.200 C 85.520 303.200,86.317 304.100,87.400 305.200 M263.800 305.887 C 262.260 307.344,261.720 307.981,262.600 307.303 C 264.141 306.116,267.145 303.180,266.778 303.219 C 266.680 303.229,265.340 304.430,263.800 305.887 M222.800 305.600 C 222.030 306.022,221.580 306.366,221.800 306.366 C 222.020 306.366,222.830 306.022,223.600 305.600 C 224.370 305.178,224.820 304.834,224.600 304.834 C 224.380 304.834,223.570 305.178,222.800 305.600 M172.275 314.722 C 170.696 316.370,170.781 316.408,175.900 316.314 L 180.600 316.229 176.038 316.101 L 171.477 315.973 172.613 314.786 C 173.238 314.134,173.660 313.600,173.550 313.600 C 173.440 313.600,172.866 314.105,172.275 314.722 M249.400 316.800 C 248.740 317.237,248.380 317.592,248.600 317.588 C 249.001 317.582,251.176 316.023,250.800 316.012 C 250.690 316.008,250.060 316.363,249.400 316.800 M138.000 333.949 C 138.330 334.146,139.230 334.420,140.000 334.556 C 140.944 334.723,141.140 334.692,140.600 334.461 C 139.363 333.932,137.290 333.523,138.000 333.949 M156.100 337.876 C 156.485 337.976,157.115 337.976,157.500 337.876 C 157.885 337.775,157.570 337.693,156.800 337.693 C 156.030 337.693,155.715 337.775,156.100 337.876 M190.705 337.883 C 191.202 337.979,191.922 337.975,192.305 337.875 C 192.687 337.775,192.280 337.696,191.400 337.701 C 190.520 337.705,190.207 337.787,190.705 337.883 M166.705 338.683 C 167.202 338.779,167.922 338.775,168.305 338.675 C 168.687 338.575,168.280 338.496,167.400 338.501 C 166.520 338.505,166.207 338.587,166.705 338.683 M33.436 363.075 C 32.866 363.689,32.400 364.429,32.400 364.720 C 32.400 365.010,32.220 365.136,32.000 365.000 C 31.780 364.864,31.600 365.038,31.600 365.386 C 31.600 366.432,33.534 366.935,34.676 366.187 C 35.483 365.658,35.623 365.280,35.522 363.908 C 35.371 361.867,34.776 361.629,33.436 363.075 M55.600 364.170 C 55.600 365.707,55.770 366.380,56.200 366.545 C 56.530 366.671,56.800 366.601,56.800 366.387 C 56.800 366.174,56.620 366.000,56.400 366.000 C 55.828 366.000,55.903 362.899,56.480 362.707 C 56.780 362.607,56.705 362.449,56.280 362.286 C 55.692 362.060,55.600 362.316,55.600 364.170 M242.352 362.266 C 241.996 362.361,241.531 363.015,241.319 363.719 C 241.107 364.424,240.724 364.955,240.467 364.900 C 239.455 364.683,240.072 365.933,241.210 366.404 C 243.258 367.253,244.467 365.584,243.748 362.900 C 243.615 362.405,243.393 362.021,243.253 362.046 C 243.114 362.072,242.709 362.171,242.352 362.266 M264.000 364.214 C 264.000 366.387,264.509 367.251,265.315 366.445 C 265.642 366.118,265.579 366.000,265.080 366.000 C 264.084 366.000,264.103 362.920,265.100 362.713 C 265.669 362.595,265.632 362.522,264.900 362.321 C 264.048 362.088,264.000 362.189,264.000 364.214 M51.390 362.816 C 51.221 363.089,51.523 363.138,52.266 362.960 C 53.799 362.592,53.944 362.400,52.690 362.400 C 52.117 362.400,51.532 362.587,51.390 362.816 M147.100 362.676 C 146.547 362.820,146.413 363.251,146.464 364.729 C 146.520 366.355,146.550 366.417,146.697 365.202 C 146.979 362.860,148.304 362.049,149.478 363.500 C 149.989 364.132,150.002 364.112,149.608 363.300 C 149.188 362.433,148.594 362.285,147.100 362.676 M162.990 362.816 C 162.824 363.085,163.094 363.142,163.755 362.976 C 164.871 362.695,165.780 363.333,166.110 364.628 C 166.292 365.340,166.311 365.335,166.354 364.562 C 166.439 363.012,163.736 361.609,162.990 362.816 M259.790 362.816 C 259.621 363.089,259.923 363.138,260.666 362.960 C 262.199 362.592,262.344 362.400,261.090 362.400 C 260.517 362.400,259.932 362.587,259.790 362.816 M356.800 362.696 C 357.130 362.825,357.619 363.216,357.887 363.565 C 358.155 363.914,358.380 364.011,358.387 363.780 C 358.406 363.153,357.525 362.396,356.820 362.432 C 356.281 362.459,356.279 362.494,356.800 362.696 M262.267 363.369 C 262.147 363.682,261.633 364.017,261.124 364.115 C 260.322 364.268,260.349 364.298,261.329 364.346 C 262.174 364.386,262.425 364.576,262.326 365.100 C 262.138 366.089,260.000 366.316,260.000 365.347 C 260.000 364.778,259.903 364.739,259.500 365.147 C 258.864 365.792,260.252 366.954,261.189 366.561 C 261.525 366.420,262.025 366.296,262.300 366.286 C 262.620 366.274,262.800 365.643,262.800 364.533 C 262.800 362.737,262.642 362.392,262.267 363.369 M355.067 363.067 C 354.661 363.472,354.748 366.479,355.158 366.226 C 355.355 366.105,355.584 365.284,355.668 364.403 C 355.815 362.868,355.644 362.489,355.067 363.067 M359.781 364.218 C 360.549 366.058,361.065 366.669,361.490 366.243 C 361.657 366.076,361.480 365.765,361.097 365.550 C 360.714 365.336,360.400 364.831,360.400 364.429 C 360.400 364.027,360.112 363.459,359.760 363.167 C 359.184 362.689,359.186 362.793,359.781 364.218 M49.232 363.939 C 48.579 365.160,48.714 365.500,49.441 364.463 C 49.793 363.960,49.988 363.454,49.873 363.340 C 49.759 363.225,49.470 363.495,49.232 363.939 M374.200 364.641 C 374.200 365.838,374.264 365.927,374.700 365.331 C 374.975 364.955,375.200 364.524,375.200 364.373 C 375.200 364.222,374.975 363.911,374.700 363.683 C 374.317 363.365,374.200 363.588,374.200 364.641 M37.234 364.600 C 37.222 365.040,37.387 365.670,37.600 366.000 C 38.114 366.795,38.114 365.796,37.600 364.600 L 37.256 363.800 37.234 364.600 M246.006 365.486 C 246.000 365.986,247.218 366.800,247.974 366.800 C 248.791 366.800,248.394 366.170,247.536 366.105 C 247.061 366.069,246.524 365.806,246.342 365.520 C 246.101 365.141,246.011 365.131,246.006 365.486 M51.442 366.280 C 51.846 366.576,52.422 366.724,52.721 366.609 C 53.021 366.494,53.551 366.400,53.899 366.400 C 55.266 366.400,53.941 365.900,52.373 365.824 C 50.890 365.752,50.788 365.802,51.442 366.280 M162.800 366.073 C 162.800 366.613,164.386 366.835,165.185 366.408 C 166.277 365.824,166.246 365.800,164.400 365.800 C 163.520 365.800,162.800 365.923,162.800 366.073 " stroke="none" fill="#b9d7e8" fill-rule="evenodd"></path></g></svg>